<?xml version="1.0" encoding="utf-8" standalone="no"?>
<!DOCTYPE svg PUBLIC "-//W3C//DTD SVG 1.1//EN"
  "http://www.w3.org/Graphics/SVG/1.1/DTD/svg11.dtd">
<!-- Created with matplotlib (https://matplotlib.org/) -->
<svg height="262pt" version="1.1" viewBox="0 0 379 262" width="379pt" xmlns="http://www.w3.org/2000/svg" xmlns:xlink="http://www.w3.org/1999/xlink">
 <metadata>
  <rdf:RDF xmlns:cc="http://creativecommons.org/ns#" xmlns:dc="http://purl.org/dc/elements/1.1/" xmlns:rdf="http://www.w3.org/1999/02/22-rdf-syntax-ns#">
   <cc:Work>
    <dc:type rdf:resource="http://purl.org/dc/dcmitype/StillImage"/>
    <dc:date>2021-04-25T16:17:59.484531</dc:date>
    <dc:format>image/svg+xml</dc:format>
    <dc:creator>
     <cc:Agent>
      <dc:title>Matplotlib v3.3.2, https://matplotlib.org/</dc:title>
     </cc:Agent>
    </dc:creator>
   </cc:Work>
  </rdf:RDF>
 </metadata>
 <defs>
  <style type="text/css">*{stroke-linecap:butt;stroke-linejoin:round;}</style>
 </defs>
 <g id="figure_1">
  <g id="patch_1">
   <path d="M 0 262 
L 379 262 
L 379 0 
L 0 0 
z
" style="fill:#ffffff;"/>
  </g>
  <g id="axes_1">
   <g id="patch_2">
    <path d="M 30.525 234.521875 
L 347.730555 234.521875 
L 347.730555 10.8 
L 30.525 10.8 
z
" style="fill:#ffffff;"/>
   </g>
   <g id="PathCollection_1">
    <defs>
     <path d="M 0 3 
C 0.795609 3 1.55874 2.683901 2.12132 2.12132 
C 2.683901 1.55874 3 0.795609 3 0 
C 3 -0.795609 2.683901 -1.55874 2.12132 -2.12132 
C 1.55874 -2.683901 0.795609 -3 0 -3 
C -0.795609 -3 -1.55874 -2.683901 -2.12132 -2.12132 
C -2.683901 -1.55874 -3 -0.795609 -3 0 
C -3 0.795609 -2.683901 1.55874 -2.12132 2.12132 
C -1.55874 2.683901 -0.795609 3 0 3 
z
" id="mac3d35fb61" style="stroke:#1f77b4;stroke-opacity:0.5;"/>
    </defs>
    <g clip-path="url(#p1295d0b8bf)">
     <use style="fill:#1f77b4;fill-opacity:0.5;stroke:#1f77b4;stroke-opacity:0.5;" x="44.943434" xlink:href="#mac3d35fb61" y="157.065359"/>
     <use style="fill:#1f77b4;fill-opacity:0.5;stroke:#1f77b4;stroke-opacity:0.5;" x="196.684666" xlink:href="#mac3d35fb61" y="20.969176"/>
     <use style="fill:#1f77b4;fill-opacity:0.5;stroke:#1f77b4;stroke-opacity:0.5;" x="321.807813" xlink:href="#mac3d35fb61" y="85.409546"/>
     <use style="fill:#1f77b4;fill-opacity:0.5;stroke:#1f77b4;stroke-opacity:0.5;" x="236.438395" xlink:href="#mac3d35fb61" y="74.043235"/>
     <use style="fill:#1f77b4;fill-opacity:0.5;stroke:#1f77b4;stroke-opacity:0.5;" x="132.048661" xlink:href="#mac3d35fb61" y="190.255319"/>
     <use style="fill:#1f77b4;fill-opacity:0.5;stroke:#1f77b4;stroke-opacity:0.5;" x="196.301725" xlink:href="#mac3d35fb61" y="47.597489"/>
     <use style="fill:#1f77b4;fill-opacity:0.5;stroke:#1f77b4;stroke-opacity:0.5;" x="228.219941" xlink:href="#mac3d35fb61" y="170.418279"/>
     <use style="fill:#1f77b4;fill-opacity:0.5;stroke:#1f77b4;stroke-opacity:0.5;" x="137.509484" xlink:href="#mac3d35fb61" y="85.550272"/>
     <use style="fill:#1f77b4;fill-opacity:0.5;stroke:#1f77b4;stroke-opacity:0.5;" x="190.771555" xlink:href="#mac3d35fb61" y="111.273925"/>
     <use style="fill:#1f77b4;fill-opacity:0.5;stroke:#1f77b4;stroke-opacity:0.5;" x="301.792951" xlink:href="#mac3d35fb61" y="222.350237"/>
     <use style="fill:#1f77b4;fill-opacity:0.5;stroke:#1f77b4;stroke-opacity:0.5;" x="244.420086" xlink:href="#mac3d35fb61" y="116.110264"/>
     <use style="fill:#1f77b4;fill-opacity:0.5;stroke:#1f77b4;stroke-opacity:0.5;" x="87.4679" xlink:href="#mac3d35fb61" y="116.636094"/>
     <use style="fill:#1f77b4;fill-opacity:0.5;stroke:#1f77b4;stroke-opacity:0.5;" x="231.488319" xlink:href="#mac3d35fb61" y="121.975971"/>
     <use style="fill:#1f77b4;fill-opacity:0.5;stroke:#1f77b4;stroke-opacity:0.5;" x="203.414687" xlink:href="#mac3d35fb61" y="107.694107"/>
     <use style="fill:#1f77b4;fill-opacity:0.5;stroke:#1f77b4;stroke-opacity:0.5;" x="46.20503" xlink:href="#mac3d35fb61" y="101.910814"/>
     <use style="fill:#1f77b4;fill-opacity:0.5;stroke:#1f77b4;stroke-opacity:0.5;" x="145.519544" xlink:href="#mac3d35fb61" y="56.170421"/>
     <use style="fill:#1f77b4;fill-opacity:0.5;stroke:#1f77b4;stroke-opacity:0.5;" x="199.132923" xlink:href="#mac3d35fb61" y="87.963615"/>
     <use style="fill:#1f77b4;fill-opacity:0.5;stroke:#1f77b4;stroke-opacity:0.5;" x="62.119605" xlink:href="#mac3d35fb61" y="158.192844"/>
     <use style="fill:#1f77b4;fill-opacity:0.5;stroke:#1f77b4;stroke-opacity:0.5;" x="200.244803" xlink:href="#mac3d35fb61" y="43.891093"/>
     <use style="fill:#1f77b4;fill-opacity:0.5;stroke:#1f77b4;stroke-opacity:0.5;" x="240.537182" xlink:href="#mac3d35fb61" y="160.435807"/>
     <use style="fill:#1f77b4;fill-opacity:0.5;stroke:#1f77b4;stroke-opacity:0.5;" x="166.9262" xlink:href="#mac3d35fb61" y="171.354554"/>
     <use style="fill:#1f77b4;fill-opacity:0.5;stroke:#1f77b4;stroke-opacity:0.5;" x="140.071667" xlink:href="#mac3d35fb61" y="89.872455"/>
     <use style="fill:#1f77b4;fill-opacity:0.5;stroke:#1f77b4;stroke-opacity:0.5;" x="50.870203" xlink:href="#mac3d35fb61" y="90.306942"/>
     <use style="fill:#1f77b4;fill-opacity:0.5;stroke:#1f77b4;stroke-opacity:0.5;" x="149.532667" xlink:href="#mac3d35fb61" y="136.188257"/>
     <use style="fill:#1f77b4;fill-opacity:0.5;stroke:#1f77b4;stroke-opacity:0.5;" x="100.693168" xlink:href="#mac3d35fb61" y="120.798576"/>
     <use style="fill:#1f77b4;fill-opacity:0.5;stroke:#1f77b4;stroke-opacity:0.5;" x="281.681576" xlink:href="#mac3d35fb61" y="191.686262"/>
     <use style="fill:#1f77b4;fill-opacity:0.5;stroke:#1f77b4;stroke-opacity:0.5;" x="197.680218" xlink:href="#mac3d35fb61" y="54.688405"/>
     <use style="fill:#1f77b4;fill-opacity:0.5;stroke:#1f77b4;stroke-opacity:0.5;" x="308.220966" xlink:href="#mac3d35fb61" y="223.284627"/>
     <use style="fill:#1f77b4;fill-opacity:0.5;stroke:#1f77b4;stroke-opacity:0.5;" x="259.146332" xlink:href="#mac3d35fb61" y="215.789073"/>
     <use style="fill:#1f77b4;fill-opacity:0.5;stroke:#1f77b4;stroke-opacity:0.5;" x="127.126379" xlink:href="#mac3d35fb61" y="201.771029"/>
     <use style="fill:#1f77b4;fill-opacity:0.5;stroke:#1f77b4;stroke-opacity:0.5;" x="273.5344" xlink:href="#mac3d35fb61" y="79.365012"/>
     <use style="fill:#1f77b4;fill-opacity:0.5;stroke:#1f77b4;stroke-opacity:0.5;" x="307.432186" xlink:href="#mac3d35fb61" y="147.667421"/>
     <use style="fill:#1f77b4;fill-opacity:0.5;stroke:#1f77b4;stroke-opacity:0.5;" x="187.354374" xlink:href="#mac3d35fb61" y="121.073453"/>
     <use style="fill:#1f77b4;fill-opacity:0.5;stroke:#1f77b4;stroke-opacity:0.5;" x="97.011823" xlink:href="#mac3d35fb61" y="136.728357"/>
     <use style="fill:#1f77b4;fill-opacity:0.5;stroke:#1f77b4;stroke-opacity:0.5;" x="124.004721" xlink:href="#mac3d35fb61" y="77.815212"/>
     <use style="fill:#1f77b4;fill-opacity:0.5;stroke:#1f77b4;stroke-opacity:0.5;" x="110.6865" xlink:href="#mac3d35fb61" y="38.044571"/>
     <use style="fill:#1f77b4;fill-opacity:0.5;stroke:#1f77b4;stroke-opacity:0.5;" x="129.773165" xlink:href="#mac3d35fb61" y="196.651246"/>
     <use style="fill:#1f77b4;fill-opacity:0.5;stroke:#1f77b4;stroke-opacity:0.5;" x="239.133998" xlink:href="#mac3d35fb61" y="159.158259"/>
     <use style="fill:#1f77b4;fill-opacity:0.5;stroke:#1f77b4;stroke-opacity:0.5;" x="265.735217" xlink:href="#mac3d35fb61" y="222.16764"/>
     <use style="fill:#1f77b4;fill-opacity:0.5;stroke:#1f77b4;stroke-opacity:0.5;" x="285.302108" xlink:href="#mac3d35fb61" y="170.799794"/>
     <use style="fill:#1f77b4;fill-opacity:0.5;stroke:#1f77b4;stroke-opacity:0.5;" x="300.397612" xlink:href="#mac3d35fb61" y="215.695919"/>
     <use style="fill:#1f77b4;fill-opacity:0.5;stroke:#1f77b4;stroke-opacity:0.5;" x="238.855612" xlink:href="#mac3d35fb61" y="203.745406"/>
     <use style="fill:#1f77b4;fill-opacity:0.5;stroke:#1f77b4;stroke-opacity:0.5;" x="207.092373" xlink:href="#mac3d35fb61" y="139.765451"/>
     <use style="fill:#1f77b4;fill-opacity:0.5;stroke:#1f77b4;stroke-opacity:0.5;" x="177.71134" xlink:href="#mac3d35fb61" y="139.559459"/>
     <use style="fill:#1f77b4;fill-opacity:0.5;stroke:#1f77b4;stroke-opacity:0.5;" x="223.724157" xlink:href="#mac3d35fb61" y="107.235034"/>
     <use style="fill:#1f77b4;fill-opacity:0.5;stroke:#1f77b4;stroke-opacity:0.5;" x="126.056869" xlink:href="#mac3d35fb61" y="78.595648"/>
     <use style="fill:#1f77b4;fill-opacity:0.5;stroke:#1f77b4;stroke-opacity:0.5;" x="218.467441" xlink:href="#mac3d35fb61" y="155.680615"/>
     <use style="fill:#1f77b4;fill-opacity:0.5;stroke:#1f77b4;stroke-opacity:0.5;" x="127.566997" xlink:href="#mac3d35fb61" y="142.363729"/>
     <use style="fill:#1f77b4;fill-opacity:0.5;stroke:#1f77b4;stroke-opacity:0.5;" x="140.303299" xlink:href="#mac3d35fb61" y="92.531986"/>
     <use style="fill:#1f77b4;fill-opacity:0.5;stroke:#1f77b4;stroke-opacity:0.5;" x="199.518755" xlink:href="#mac3d35fb61" y="138.235486"/>
     <use style="fill:#1f77b4;fill-opacity:0.5;stroke:#1f77b4;stroke-opacity:0.5;" x="268.276363" xlink:href="#mac3d35fb61" y="45.351509"/>
     <use style="fill:#1f77b4;fill-opacity:0.5;stroke:#1f77b4;stroke-opacity:0.5;" x="108.485228" xlink:href="#mac3d35fb61" y="118.202847"/>
     <use style="fill:#1f77b4;fill-opacity:0.5;stroke:#1f77b4;stroke-opacity:0.5;" x="216.018875" xlink:href="#mac3d35fb61" y="156.795083"/>
     <use style="fill:#1f77b4;fill-opacity:0.5;stroke:#1f77b4;stroke-opacity:0.5;" x="280.931702" xlink:href="#mac3d35fb61" y="110.403352"/>
     <use style="fill:#1f77b4;fill-opacity:0.5;stroke:#1f77b4;stroke-opacity:0.5;" x="187.061381" xlink:href="#mac3d35fb61" y="224.352699"/>
     <use style="fill:#1f77b4;fill-opacity:0.5;stroke:#1f77b4;stroke-opacity:0.5;" x="197.914193" xlink:href="#mac3d35fb61" y="59.693858"/>
     <use style="fill:#1f77b4;fill-opacity:0.5;stroke:#1f77b4;stroke-opacity:0.5;" x="326.694285" xlink:href="#mac3d35fb61" y="199.077832"/>
     <use style="fill:#1f77b4;fill-opacity:0.5;stroke:#1f77b4;stroke-opacity:0.5;" x="231.869075" xlink:href="#mac3d35fb61" y="125.377204"/>
     <use style="fill:#1f77b4;fill-opacity:0.5;stroke:#1f77b4;stroke-opacity:0.5;" x="180.513662" xlink:href="#mac3d35fb61" y="83.976672"/>
     <use style="fill:#1f77b4;fill-opacity:0.5;stroke:#1f77b4;stroke-opacity:0.5;" x="333.312121" xlink:href="#mac3d35fb61" y="78.908805"/>
    </g>
   </g>
   <g id="matplotlib.axis_1">
    <g id="xtick_1">
     <g id="line2d_1">
      <defs>
       <path d="M 0 0 
L 0 3.5 
" id="m6de63a8356" style="stroke:#000000;stroke-width:0.8;"/>
      </defs>
      <g>
       <use style="stroke:#000000;stroke-width:0.8;" x="59.594358" xlink:href="#m6de63a8356" y="234.521875"/>
      </g>
     </g>
     <g id="text_1">
      <!-- −2 -->
      <g transform="translate(52.223264 249.120312)scale(0.1 -0.1)">
       <defs>
        <path d="M 10.59375 35.5 
L 73.1875 35.5 
L 73.1875 27.203125 
L 10.59375 27.203125 
z
" id="DejaVuSans-8722"/>
        <path d="M 19.1875 8.296875 
L 53.609375 8.296875 
L 53.609375 0 
L 7.328125 0 
L 7.328125 8.296875 
Q 12.9375 14.109375 22.625 23.890625 
Q 32.328125 33.6875 34.8125 36.53125 
Q 39.546875 41.84375 41.421875 45.53125 
Q 43.3125 49.21875 43.3125 52.78125 
Q 43.3125 58.59375 39.234375 62.25 
Q 35.15625 65.921875 28.609375 65.921875 
Q 23.96875 65.921875 18.8125 64.3125 
Q 13.671875 62.703125 7.8125 59.421875 
L 7.8125 69.390625 
Q 13.765625 71.78125 18.9375 73 
Q 24.125 74.21875 28.421875 74.21875 
Q 39.75 74.21875 46.484375 68.546875 
Q 53.21875 62.890625 53.21875 53.421875 
Q 53.21875 48.921875 51.53125 44.890625 
Q 49.859375 40.875 45.40625 35.40625 
Q 44.1875 33.984375 37.640625 27.21875 
Q 31.109375 20.453125 19.1875 8.296875 
z
" id="DejaVuSans-50"/>
       </defs>
       <use xlink:href="#DejaVuSans-8722"/>
       <use x="83.789062" xlink:href="#DejaVuSans-50"/>
      </g>
     </g>
    </g>
    <g id="xtick_2">
     <g id="line2d_2">
      <g>
       <use style="stroke:#000000;stroke-width:0.8;" x="110.926928" xlink:href="#m6de63a8356" y="234.521875"/>
      </g>
     </g>
     <g id="text_2">
      <!-- −1 -->
      <g transform="translate(103.555834 249.120312)scale(0.1 -0.1)">
       <defs>
        <path d="M 12.40625 8.296875 
L 28.515625 8.296875 
L 28.515625 63.921875 
L 10.984375 60.40625 
L 10.984375 69.390625 
L 28.421875 72.90625 
L 38.28125 72.90625 
L 38.28125 8.296875 
L 54.390625 8.296875 
L 54.390625 0 
L 12.40625 0 
z
" id="DejaVuSans-49"/>
       </defs>
       <use xlink:href="#DejaVuSans-8722"/>
       <use x="83.789062" xlink:href="#DejaVuSans-49"/>
      </g>
     </g>
    </g>
    <g id="xtick_3">
     <g id="line2d_3">
      <g>
       <use style="stroke:#000000;stroke-width:0.8;" x="162.259499" xlink:href="#m6de63a8356" y="234.521875"/>
      </g>
     </g>
     <g id="text_3">
      <!-- 0 -->
      <g transform="translate(159.078249 249.120312)scale(0.1 -0.1)">
       <defs>
        <path d="M 31.78125 66.40625 
Q 24.171875 66.40625 20.328125 58.90625 
Q 16.5 51.421875 16.5 36.375 
Q 16.5 21.390625 20.328125 13.890625 
Q 24.171875 6.390625 31.78125 6.390625 
Q 39.453125 6.390625 43.28125 13.890625 
Q 47.125 21.390625 47.125 36.375 
Q 47.125 51.421875 43.28125 58.90625 
Q 39.453125 66.40625 31.78125 66.40625 
z
M 31.78125 74.21875 
Q 44.046875 74.21875 50.515625 64.515625 
Q 56.984375 54.828125 56.984375 36.375 
Q 56.984375 17.96875 50.515625 8.265625 
Q 44.046875 -1.421875 31.78125 -1.421875 
Q 19.53125 -1.421875 13.0625 8.265625 
Q 6.59375 17.96875 6.59375 36.375 
Q 6.59375 54.828125 13.0625 64.515625 
Q 19.53125 74.21875 31.78125 74.21875 
z
" id="DejaVuSans-48"/>
       </defs>
       <use xlink:href="#DejaVuSans-48"/>
      </g>
     </g>
    </g>
    <g id="xtick_4">
     <g id="line2d_4">
      <g>
       <use style="stroke:#000000;stroke-width:0.8;" x="213.59207" xlink:href="#m6de63a8356" y="234.521875"/>
      </g>
     </g>
     <g id="text_4">
      <!-- 1 -->
      <g transform="translate(210.41082 249.120312)scale(0.1 -0.1)">
       <use xlink:href="#DejaVuSans-49"/>
      </g>
     </g>
    </g>
    <g id="xtick_5">
     <g id="line2d_5">
      <g>
       <use style="stroke:#000000;stroke-width:0.8;" x="264.92464" xlink:href="#m6de63a8356" y="234.521875"/>
      </g>
     </g>
     <g id="text_5">
      <!-- 2 -->
      <g transform="translate(261.74339 249.120312)scale(0.1 -0.1)">
       <use xlink:href="#DejaVuSans-50"/>
      </g>
     </g>
    </g>
    <g id="xtick_6">
     <g id="line2d_6">
      <g>
       <use style="stroke:#000000;stroke-width:0.8;" x="316.257211" xlink:href="#m6de63a8356" y="234.521875"/>
      </g>
     </g>
     <g id="text_6">
      <!-- 3 -->
      <g transform="translate(313.075961 249.120312)scale(0.1 -0.1)">
       <defs>
        <path d="M 40.578125 39.3125 
Q 47.65625 37.796875 51.625 33 
Q 55.609375 28.21875 55.609375 21.1875 
Q 55.609375 10.40625 48.1875 4.484375 
Q 40.765625 -1.421875 27.09375 -1.421875 
Q 22.515625 -1.421875 17.65625 -0.515625 
Q 12.796875 0.390625 7.625 2.203125 
L 7.625 11.71875 
Q 11.71875 9.328125 16.59375 8.109375 
Q 21.484375 6.890625 26.8125 6.890625 
Q 36.078125 6.890625 40.9375 10.546875 
Q 45.796875 14.203125 45.796875 21.1875 
Q 45.796875 27.640625 41.28125 31.265625 
Q 36.765625 34.90625 28.71875 34.90625 
L 20.21875 34.90625 
L 20.21875 43.015625 
L 29.109375 43.015625 
Q 36.375 43.015625 40.234375 45.921875 
Q 44.09375 48.828125 44.09375 54.296875 
Q 44.09375 59.90625 40.109375 62.90625 
Q 36.140625 65.921875 28.71875 65.921875 
Q 24.65625 65.921875 20.015625 65.03125 
Q 15.375 64.15625 9.8125 62.3125 
L 9.8125 71.09375 
Q 15.4375 72.65625 20.34375 73.4375 
Q 25.25 74.21875 29.59375 74.21875 
Q 40.828125 74.21875 47.359375 69.109375 
Q 53.90625 64.015625 53.90625 55.328125 
Q 53.90625 49.265625 50.4375 45.09375 
Q 46.96875 40.921875 40.578125 39.3125 
z
" id="DejaVuSans-51"/>
       </defs>
       <use xlink:href="#DejaVuSans-51"/>
      </g>
     </g>
    </g>
   </g>
   <g id="matplotlib.axis_2">
    <g id="ytick_1">
     <g id="line2d_7">
      <defs>
       <path d="M 0 0 
L -3.5 0 
" id="me1f217291c" style="stroke:#000000;stroke-width:0.8;"/>
      </defs>
      <g>
       <use style="stroke:#000000;stroke-width:0.8;" x="30.525" xlink:href="#me1f217291c" y="217.92929"/>
      </g>
     </g>
     <g id="text_7">
      <!-- 5 -->
      <g transform="translate(17.1625 221.728508)scale(0.1 -0.1)">
       <defs>
        <path d="M 10.796875 72.90625 
L 49.515625 72.90625 
L 49.515625 64.59375 
L 19.828125 64.59375 
L 19.828125 46.734375 
Q 21.96875 47.46875 24.109375 47.828125 
Q 26.265625 48.1875 28.421875 48.1875 
Q 40.625 48.1875 47.75 41.5 
Q 54.890625 34.8125 54.890625 23.390625 
Q 54.890625 11.625 47.5625 5.09375 
Q 40.234375 -1.421875 26.90625 -1.421875 
Q 22.3125 -1.421875 17.546875 -0.640625 
Q 12.796875 0.140625 7.71875 1.703125 
L 7.71875 11.625 
Q 12.109375 9.234375 16.796875 8.0625 
Q 21.484375 6.890625 26.703125 6.890625 
Q 35.15625 6.890625 40.078125 11.328125 
Q 45.015625 15.765625 45.015625 23.390625 
Q 45.015625 31 40.078125 35.4375 
Q 35.15625 39.890625 26.703125 39.890625 
Q 22.75 39.890625 18.8125 39.015625 
Q 14.890625 38.140625 10.796875 36.28125 
z
" id="DejaVuSans-53"/>
       </defs>
       <use xlink:href="#DejaVuSans-53"/>
      </g>
     </g>
    </g>
    <g id="ytick_2">
     <g id="line2d_8">
      <g>
       <use style="stroke:#000000;stroke-width:0.8;" x="30.525" xlink:href="#me1f217291c" y="186.297516"/>
      </g>
     </g>
     <g id="text_8">
      <!-- 6 -->
      <g transform="translate(17.1625 190.096734)scale(0.1 -0.1)">
       <defs>
        <path d="M 33.015625 40.375 
Q 26.375 40.375 22.484375 35.828125 
Q 18.609375 31.296875 18.609375 23.390625 
Q 18.609375 15.53125 22.484375 10.953125 
Q 26.375 6.390625 33.015625 6.390625 
Q 39.65625 6.390625 43.53125 10.953125 
Q 47.40625 15.53125 47.40625 23.390625 
Q 47.40625 31.296875 43.53125 35.828125 
Q 39.65625 40.375 33.015625 40.375 
z
M 52.59375 71.296875 
L 52.59375 62.3125 
Q 48.875 64.0625 45.09375 64.984375 
Q 41.3125 65.921875 37.59375 65.921875 
Q 27.828125 65.921875 22.671875 59.328125 
Q 17.53125 52.734375 16.796875 39.40625 
Q 19.671875 43.65625 24.015625 45.921875 
Q 28.375 48.1875 33.59375 48.1875 
Q 44.578125 48.1875 50.953125 41.515625 
Q 57.328125 34.859375 57.328125 23.390625 
Q 57.328125 12.15625 50.6875 5.359375 
Q 44.046875 -1.421875 33.015625 -1.421875 
Q 20.359375 -1.421875 13.671875 8.265625 
Q 6.984375 17.96875 6.984375 36.375 
Q 6.984375 53.65625 15.1875 63.9375 
Q 23.390625 74.21875 37.203125 74.21875 
Q 40.921875 74.21875 44.703125 73.484375 
Q 48.484375 72.75 52.59375 71.296875 
z
" id="DejaVuSans-54"/>
       </defs>
       <use xlink:href="#DejaVuSans-54"/>
      </g>
     </g>
    </g>
    <g id="ytick_3">
     <g id="line2d_9">
      <g>
       <use style="stroke:#000000;stroke-width:0.8;" x="30.525" xlink:href="#me1f217291c" y="154.665742"/>
      </g>
     </g>
     <g id="text_9">
      <!-- 7 -->
      <g transform="translate(17.1625 158.464961)scale(0.1 -0.1)">
       <defs>
        <path d="M 8.203125 72.90625 
L 55.078125 72.90625 
L 55.078125 68.703125 
L 28.609375 0 
L 18.3125 0 
L 43.21875 64.59375 
L 8.203125 64.59375 
z
" id="DejaVuSans-55"/>
       </defs>
       <use xlink:href="#DejaVuSans-55"/>
      </g>
     </g>
    </g>
    <g id="ytick_4">
     <g id="line2d_10">
      <g>
       <use style="stroke:#000000;stroke-width:0.8;" x="30.525" xlink:href="#me1f217291c" y="123.033968"/>
      </g>
     </g>
     <g id="text_10">
      <!-- 8 -->
      <g transform="translate(17.1625 126.833187)scale(0.1 -0.1)">
       <defs>
        <path d="M 31.78125 34.625 
Q 24.75 34.625 20.71875 30.859375 
Q 16.703125 27.09375 16.703125 20.515625 
Q 16.703125 13.921875 20.71875 10.15625 
Q 24.75 6.390625 31.78125 6.390625 
Q 38.8125 6.390625 42.859375 10.171875 
Q 46.921875 13.96875 46.921875 20.515625 
Q 46.921875 27.09375 42.890625 30.859375 
Q 38.875 34.625 31.78125 34.625 
z
M 21.921875 38.8125 
Q 15.578125 40.375 12.03125 44.71875 
Q 8.5 49.078125 8.5 55.328125 
Q 8.5 64.0625 14.71875 69.140625 
Q 20.953125 74.21875 31.78125 74.21875 
Q 42.671875 74.21875 48.875 69.140625 
Q 55.078125 64.0625 55.078125 55.328125 
Q 55.078125 49.078125 51.53125 44.71875 
Q 48 40.375 41.703125 38.8125 
Q 48.828125 37.15625 52.796875 32.3125 
Q 56.78125 27.484375 56.78125 20.515625 
Q 56.78125 9.90625 50.3125 4.234375 
Q 43.84375 -1.421875 31.78125 -1.421875 
Q 19.734375 -1.421875 13.25 4.234375 
Q 6.78125 9.90625 6.78125 20.515625 
Q 6.78125 27.484375 10.78125 32.3125 
Q 14.796875 37.15625 21.921875 38.8125 
z
M 18.3125 54.390625 
Q 18.3125 48.734375 21.84375 45.5625 
Q 25.390625 42.390625 31.78125 42.390625 
Q 38.140625 42.390625 41.71875 45.5625 
Q 45.3125 48.734375 45.3125 54.390625 
Q 45.3125 60.0625 41.71875 63.234375 
Q 38.140625 66.40625 31.78125 66.40625 
Q 25.390625 66.40625 21.84375 63.234375 
Q 18.3125 60.0625 18.3125 54.390625 
z
" id="DejaVuSans-56"/>
       </defs>
       <use xlink:href="#DejaVuSans-56"/>
      </g>
     </g>
    </g>
    <g id="ytick_5">
     <g id="line2d_11">
      <g>
       <use style="stroke:#000000;stroke-width:0.8;" x="30.525" xlink:href="#me1f217291c" y="91.402194"/>
      </g>
     </g>
     <g id="text_11">
      <!-- 9 -->
      <g transform="translate(17.1625 95.201413)scale(0.1 -0.1)">
       <defs>
        <path d="M 10.984375 1.515625 
L 10.984375 10.5 
Q 14.703125 8.734375 18.5 7.8125 
Q 22.3125 6.890625 25.984375 6.890625 
Q 35.75 6.890625 40.890625 13.453125 
Q 46.046875 20.015625 46.78125 33.40625 
Q 43.953125 29.203125 39.59375 26.953125 
Q 35.25 24.703125 29.984375 24.703125 
Q 19.046875 24.703125 12.671875 31.3125 
Q 6.296875 37.9375 6.296875 49.421875 
Q 6.296875 60.640625 12.9375 67.421875 
Q 19.578125 74.21875 30.609375 74.21875 
Q 43.265625 74.21875 49.921875 64.515625 
Q 56.59375 54.828125 56.59375 36.375 
Q 56.59375 19.140625 48.40625 8.859375 
Q 40.234375 -1.421875 26.421875 -1.421875 
Q 22.703125 -1.421875 18.890625 -0.6875 
Q 15.09375 0.046875 10.984375 1.515625 
z
M 30.609375 32.421875 
Q 37.25 32.421875 41.125 36.953125 
Q 45.015625 41.5 45.015625 49.421875 
Q 45.015625 57.28125 41.125 61.84375 
Q 37.25 66.40625 30.609375 66.40625 
Q 23.96875 66.40625 20.09375 61.84375 
Q 16.21875 57.28125 16.21875 49.421875 
Q 16.21875 41.5 20.09375 36.953125 
Q 23.96875 32.421875 30.609375 32.421875 
z
" id="DejaVuSans-57"/>
       </defs>
       <use xlink:href="#DejaVuSans-57"/>
      </g>
     </g>
    </g>
    <g id="ytick_6">
     <g id="line2d_12">
      <g>
       <use style="stroke:#000000;stroke-width:0.8;" x="30.525" xlink:href="#me1f217291c" y="59.77042"/>
      </g>
     </g>
     <g id="text_12">
      <!-- 10 -->
      <g transform="translate(10.8 63.569639)scale(0.1 -0.1)">
       <use xlink:href="#DejaVuSans-49"/>
       <use x="63.623047" xlink:href="#DejaVuSans-48"/>
      </g>
     </g>
    </g>
    <g id="ytick_7">
     <g id="line2d_13">
      <g>
       <use style="stroke:#000000;stroke-width:0.8;" x="30.525" xlink:href="#me1f217291c" y="28.138646"/>
      </g>
     </g>
     <g id="text_13">
      <!-- 11 -->
      <g transform="translate(10.8 31.937865)scale(0.1 -0.1)">
       <use xlink:href="#DejaVuSans-49"/>
       <use x="63.623047" xlink:href="#DejaVuSans-49"/>
      </g>
     </g>
    </g>
   </g>
   <g id="patch_3">
    <path d="M 30.525 234.521875 
L 30.525 10.8 
" style="fill:none;stroke:#000000;stroke-linecap:square;stroke-linejoin:miter;stroke-width:0.8;"/>
   </g>
   <g id="patch_4">
    <path d="M 347.730555 234.521875 
L 347.730555 10.8 
" style="fill:none;stroke:#000000;stroke-linecap:square;stroke-linejoin:miter;stroke-width:0.8;"/>
   </g>
   <g id="patch_5">
    <path d="M 30.525 234.521875 
L 347.730555 234.521875 
" style="fill:none;stroke:#000000;stroke-linecap:square;stroke-linejoin:miter;stroke-width:0.8;"/>
   </g>
   <g id="patch_6">
    <path d="M 30.525 10.8 
L 347.730555 10.8 
" style="fill:none;stroke:#000000;stroke-linecap:square;stroke-linejoin:miter;stroke-width:0.8;"/>
   </g>
   <g id="text_14">
    <!-- Apple -->
    <g style="opacity:0.75;" transform="translate(44.943434 157.065359)scale(0.05 -0.05)">
     <defs>
      <path d="M 34.1875 63.1875 
L 20.796875 26.90625 
L 47.609375 26.90625 
z
M 28.609375 72.90625 
L 39.796875 72.90625 
L 67.578125 0 
L 57.328125 0 
L 50.6875 18.703125 
L 17.828125 18.703125 
L 11.1875 0 
L 0.78125 0 
z
" id="DejaVuSans-65"/>
      <path d="M 18.109375 8.203125 
L 18.109375 -20.796875 
L 9.078125 -20.796875 
L 9.078125 54.6875 
L 18.109375 54.6875 
L 18.109375 46.390625 
Q 20.953125 51.265625 25.265625 53.625 
Q 29.59375 56 35.59375 56 
Q 45.5625 56 51.78125 48.09375 
Q 58.015625 40.1875 58.015625 27.296875 
Q 58.015625 14.40625 51.78125 6.484375 
Q 45.5625 -1.421875 35.59375 -1.421875 
Q 29.59375 -1.421875 25.265625 0.953125 
Q 20.953125 3.328125 18.109375 8.203125 
z
M 48.6875 27.296875 
Q 48.6875 37.203125 44.609375 42.84375 
Q 40.53125 48.484375 33.40625 48.484375 
Q 26.265625 48.484375 22.1875 42.84375 
Q 18.109375 37.203125 18.109375 27.296875 
Q 18.109375 17.390625 22.1875 11.75 
Q 26.265625 6.109375 33.40625 6.109375 
Q 40.53125 6.109375 44.609375 11.75 
Q 48.6875 17.390625 48.6875 27.296875 
z
" id="DejaVuSans-112"/>
      <path d="M 9.421875 75.984375 
L 18.40625 75.984375 
L 18.40625 0 
L 9.421875 0 
z
" id="DejaVuSans-108"/>
      <path d="M 56.203125 29.59375 
L 56.203125 25.203125 
L 14.890625 25.203125 
Q 15.484375 15.921875 20.484375 11.0625 
Q 25.484375 6.203125 34.421875 6.203125 
Q 39.59375 6.203125 44.453125 7.46875 
Q 49.3125 8.734375 54.109375 11.28125 
L 54.109375 2.78125 
Q 49.265625 0.734375 44.1875 -0.34375 
Q 39.109375 -1.421875 33.890625 -1.421875 
Q 20.796875 -1.421875 13.15625 6.1875 
Q 5.515625 13.8125 5.515625 26.8125 
Q 5.515625 40.234375 12.765625 48.109375 
Q 20.015625 56 32.328125 56 
Q 43.359375 56 49.78125 48.890625 
Q 56.203125 41.796875 56.203125 29.59375 
z
M 47.21875 32.234375 
Q 47.125 39.59375 43.09375 43.984375 
Q 39.0625 48.390625 32.421875 48.390625 
Q 24.90625 48.390625 20.390625 44.140625 
Q 15.875 39.890625 15.1875 32.171875 
z
" id="DejaVuSans-101"/>
     </defs>
     <use xlink:href="#DejaVuSans-65"/>
     <use x="68.408203" xlink:href="#DejaVuSans-112"/>
     <use x="131.884766" xlink:href="#DejaVuSans-112"/>
     <use x="195.361328" xlink:href="#DejaVuSans-108"/>
     <use x="223.144531" xlink:href="#DejaVuSans-101"/>
    </g>
   </g>
   <g id="text_15">
    <!-- AIG -->
    <g style="opacity:0.75;" transform="translate(196.684666 20.969176)scale(0.05 -0.05)">
     <defs>
      <path d="M 9.8125 72.90625 
L 19.671875 72.90625 
L 19.671875 0 
L 9.8125 0 
z
" id="DejaVuSans-73"/>
      <path d="M 59.515625 10.40625 
L 59.515625 29.984375 
L 43.40625 29.984375 
L 43.40625 38.09375 
L 69.28125 38.09375 
L 69.28125 6.78125 
Q 63.578125 2.734375 56.6875 0.65625 
Q 49.8125 -1.421875 42 -1.421875 
Q 24.90625 -1.421875 15.25 8.5625 
Q 5.609375 18.5625 5.609375 36.375 
Q 5.609375 54.25 15.25 64.234375 
Q 24.90625 74.21875 42 74.21875 
Q 49.125 74.21875 55.546875 72.453125 
Q 61.96875 70.703125 67.390625 67.28125 
L 67.390625 56.78125 
Q 61.921875 61.421875 55.765625 63.765625 
Q 49.609375 66.109375 42.828125 66.109375 
Q 29.4375 66.109375 22.71875 58.640625 
Q 16.015625 51.171875 16.015625 36.375 
Q 16.015625 21.625 22.71875 14.15625 
Q 29.4375 6.6875 42.828125 6.6875 
Q 48.046875 6.6875 52.140625 7.59375 
Q 56.25 8.5 59.515625 10.40625 
z
" id="DejaVuSans-71"/>
     </defs>
     <use xlink:href="#DejaVuSans-65"/>
     <use x="68.408203" xlink:href="#DejaVuSans-73"/>
     <use x="97.900391" xlink:href="#DejaVuSans-71"/>
    </g>
   </g>
   <g id="text_16">
    <!-- Amazon -->
    <g style="opacity:0.75;" transform="translate(321.807813 85.409546)scale(0.05 -0.05)">
     <defs>
      <path d="M 52 44.1875 
Q 55.375 50.25 60.0625 53.125 
Q 64.75 56 71.09375 56 
Q 79.640625 56 84.28125 50.015625 
Q 88.921875 44.046875 88.921875 33.015625 
L 88.921875 0 
L 79.890625 0 
L 79.890625 32.71875 
Q 79.890625 40.578125 77.09375 44.375 
Q 74.3125 48.1875 68.609375 48.1875 
Q 61.625 48.1875 57.5625 43.546875 
Q 53.515625 38.921875 53.515625 30.90625 
L 53.515625 0 
L 44.484375 0 
L 44.484375 32.71875 
Q 44.484375 40.625 41.703125 44.40625 
Q 38.921875 48.1875 33.109375 48.1875 
Q 26.21875 48.1875 22.15625 43.53125 
Q 18.109375 38.875 18.109375 30.90625 
L 18.109375 0 
L 9.078125 0 
L 9.078125 54.6875 
L 18.109375 54.6875 
L 18.109375 46.1875 
Q 21.1875 51.21875 25.484375 53.609375 
Q 29.78125 56 35.6875 56 
Q 41.65625 56 45.828125 52.96875 
Q 50 49.953125 52 44.1875 
z
" id="DejaVuSans-109"/>
      <path d="M 34.28125 27.484375 
Q 23.390625 27.484375 19.1875 25 
Q 14.984375 22.515625 14.984375 16.5 
Q 14.984375 11.71875 18.140625 8.90625 
Q 21.296875 6.109375 26.703125 6.109375 
Q 34.1875 6.109375 38.703125 11.40625 
Q 43.21875 16.703125 43.21875 25.484375 
L 43.21875 27.484375 
z
M 52.203125 31.203125 
L 52.203125 0 
L 43.21875 0 
L 43.21875 8.296875 
Q 40.140625 3.328125 35.546875 0.953125 
Q 30.953125 -1.421875 24.3125 -1.421875 
Q 15.921875 -1.421875 10.953125 3.296875 
Q 6 8.015625 6 15.921875 
Q 6 25.140625 12.171875 29.828125 
Q 18.359375 34.515625 30.609375 34.515625 
L 43.21875 34.515625 
L 43.21875 35.40625 
Q 43.21875 41.609375 39.140625 45 
Q 35.0625 48.390625 27.6875 48.390625 
Q 23 48.390625 18.546875 47.265625 
Q 14.109375 46.140625 10.015625 43.890625 
L 10.015625 52.203125 
Q 14.9375 54.109375 19.578125 55.046875 
Q 24.21875 56 28.609375 56 
Q 40.484375 56 46.34375 49.84375 
Q 52.203125 43.703125 52.203125 31.203125 
z
" id="DejaVuSans-97"/>
      <path d="M 5.515625 54.6875 
L 48.1875 54.6875 
L 48.1875 46.484375 
L 14.40625 7.171875 
L 48.1875 7.171875 
L 48.1875 0 
L 4.296875 0 
L 4.296875 8.203125 
L 38.09375 47.515625 
L 5.515625 47.515625 
z
" id="DejaVuSans-122"/>
      <path d="M 30.609375 48.390625 
Q 23.390625 48.390625 19.1875 42.75 
Q 14.984375 37.109375 14.984375 27.296875 
Q 14.984375 17.484375 19.15625 11.84375 
Q 23.34375 6.203125 30.609375 6.203125 
Q 37.796875 6.203125 41.984375 11.859375 
Q 46.1875 17.53125 46.1875 27.296875 
Q 46.1875 37.015625 41.984375 42.703125 
Q 37.796875 48.390625 30.609375 48.390625 
z
M 30.609375 56 
Q 42.328125 56 49.015625 48.375 
Q 55.71875 40.765625 55.71875 27.296875 
Q 55.71875 13.875 49.015625 6.21875 
Q 42.328125 -1.421875 30.609375 -1.421875 
Q 18.84375 -1.421875 12.171875 6.21875 
Q 5.515625 13.875 5.515625 27.296875 
Q 5.515625 40.765625 12.171875 48.375 
Q 18.84375 56 30.609375 56 
z
" id="DejaVuSans-111"/>
      <path d="M 54.890625 33.015625 
L 54.890625 0 
L 45.90625 0 
L 45.90625 32.71875 
Q 45.90625 40.484375 42.875 44.328125 
Q 39.84375 48.1875 33.796875 48.1875 
Q 26.515625 48.1875 22.3125 43.546875 
Q 18.109375 38.921875 18.109375 30.90625 
L 18.109375 0 
L 9.078125 0 
L 9.078125 54.6875 
L 18.109375 54.6875 
L 18.109375 46.1875 
Q 21.34375 51.125 25.703125 53.5625 
Q 30.078125 56 35.796875 56 
Q 45.21875 56 50.046875 50.171875 
Q 54.890625 44.34375 54.890625 33.015625 
z
" id="DejaVuSans-110"/>
     </defs>
     <use xlink:href="#DejaVuSans-65"/>
     <use x="68.408203" xlink:href="#DejaVuSans-109"/>
     <use x="165.820312" xlink:href="#DejaVuSans-97"/>
     <use x="227.099609" xlink:href="#DejaVuSans-122"/>
     <use x="279.589844" xlink:href="#DejaVuSans-111"/>
     <use x="340.771484" xlink:href="#DejaVuSans-110"/>
    </g>
   </g>
   <g id="text_17">
    <!-- American express -->
    <g style="opacity:0.75;" transform="translate(236.438395 74.043235)scale(0.05 -0.05)">
     <defs>
      <path d="M 41.109375 46.296875 
Q 39.59375 47.171875 37.8125 47.578125 
Q 36.03125 48 33.890625 48 
Q 26.265625 48 22.1875 43.046875 
Q 18.109375 38.09375 18.109375 28.8125 
L 18.109375 0 
L 9.078125 0 
L 9.078125 54.6875 
L 18.109375 54.6875 
L 18.109375 46.1875 
Q 20.953125 51.171875 25.484375 53.578125 
Q 30.03125 56 36.53125 56 
Q 37.453125 56 38.578125 55.875 
Q 39.703125 55.765625 41.0625 55.515625 
z
" id="DejaVuSans-114"/>
      <path d="M 9.421875 54.6875 
L 18.40625 54.6875 
L 18.40625 0 
L 9.421875 0 
z
M 9.421875 75.984375 
L 18.40625 75.984375 
L 18.40625 64.59375 
L 9.421875 64.59375 
z
" id="DejaVuSans-105"/>
      <path d="M 48.78125 52.59375 
L 48.78125 44.1875 
Q 44.96875 46.296875 41.140625 47.34375 
Q 37.3125 48.390625 33.40625 48.390625 
Q 24.65625 48.390625 19.8125 42.84375 
Q 14.984375 37.3125 14.984375 27.296875 
Q 14.984375 17.28125 19.8125 11.734375 
Q 24.65625 6.203125 33.40625 6.203125 
Q 37.3125 6.203125 41.140625 7.25 
Q 44.96875 8.296875 48.78125 10.40625 
L 48.78125 2.09375 
Q 45.015625 0.34375 40.984375 -0.53125 
Q 36.96875 -1.421875 32.421875 -1.421875 
Q 20.0625 -1.421875 12.78125 6.34375 
Q 5.515625 14.109375 5.515625 27.296875 
Q 5.515625 40.671875 12.859375 48.328125 
Q 20.21875 56 33.015625 56 
Q 37.15625 56 41.109375 55.140625 
Q 45.0625 54.296875 48.78125 52.59375 
z
" id="DejaVuSans-99"/>
      <path id="DejaVuSans-32"/>
      <path d="M 54.890625 54.6875 
L 35.109375 28.078125 
L 55.90625 0 
L 45.3125 0 
L 29.390625 21.484375 
L 13.484375 0 
L 2.875 0 
L 24.125 28.609375 
L 4.6875 54.6875 
L 15.28125 54.6875 
L 29.78125 35.203125 
L 44.28125 54.6875 
z
" id="DejaVuSans-120"/>
      <path d="M 44.28125 53.078125 
L 44.28125 44.578125 
Q 40.484375 46.53125 36.375 47.5 
Q 32.28125 48.484375 27.875 48.484375 
Q 21.1875 48.484375 17.84375 46.4375 
Q 14.5 44.390625 14.5 40.28125 
Q 14.5 37.15625 16.890625 35.375 
Q 19.28125 33.59375 26.515625 31.984375 
L 29.59375 31.296875 
Q 39.15625 29.25 43.1875 25.515625 
Q 47.21875 21.78125 47.21875 15.09375 
Q 47.21875 7.46875 41.1875 3.015625 
Q 35.15625 -1.421875 24.609375 -1.421875 
Q 20.21875 -1.421875 15.453125 -0.5625 
Q 10.6875 0.296875 5.421875 2 
L 5.421875 11.28125 
Q 10.40625 8.6875 15.234375 7.390625 
Q 20.0625 6.109375 24.8125 6.109375 
Q 31.15625 6.109375 34.5625 8.28125 
Q 37.984375 10.453125 37.984375 14.40625 
Q 37.984375 18.0625 35.515625 20.015625 
Q 33.0625 21.96875 24.703125 23.78125 
L 21.578125 24.515625 
Q 13.234375 26.265625 9.515625 29.90625 
Q 5.8125 33.546875 5.8125 39.890625 
Q 5.8125 47.609375 11.28125 51.796875 
Q 16.75 56 26.8125 56 
Q 31.78125 56 36.171875 55.265625 
Q 40.578125 54.546875 44.28125 53.078125 
z
" id="DejaVuSans-115"/>
     </defs>
     <use xlink:href="#DejaVuSans-65"/>
     <use x="68.408203" xlink:href="#DejaVuSans-109"/>
     <use x="165.820312" xlink:href="#DejaVuSans-101"/>
     <use x="227.34375" xlink:href="#DejaVuSans-114"/>
     <use x="268.457031" xlink:href="#DejaVuSans-105"/>
     <use x="296.240234" xlink:href="#DejaVuSans-99"/>
     <use x="351.220703" xlink:href="#DejaVuSans-97"/>
     <use x="412.5" xlink:href="#DejaVuSans-110"/>
     <use x="475.878906" xlink:href="#DejaVuSans-32"/>
     <use x="507.666016" xlink:href="#DejaVuSans-101"/>
     <use x="567.439453" xlink:href="#DejaVuSans-120"/>
     <use x="626.619141" xlink:href="#DejaVuSans-112"/>
     <use x="690.095703" xlink:href="#DejaVuSans-114"/>
     <use x="728.958984" xlink:href="#DejaVuSans-101"/>
     <use x="790.482422" xlink:href="#DejaVuSans-115"/>
     <use x="842.582031" xlink:href="#DejaVuSans-115"/>
    </g>
   </g>
   <g id="text_18">
    <!-- Boeing -->
    <g style="opacity:0.75;" transform="translate(132.048661 190.255319)scale(0.05 -0.05)">
     <defs>
      <path d="M 19.671875 34.8125 
L 19.671875 8.109375 
L 35.5 8.109375 
Q 43.453125 8.109375 47.28125 11.40625 
Q 51.125 14.703125 51.125 21.484375 
Q 51.125 28.328125 47.28125 31.5625 
Q 43.453125 34.8125 35.5 34.8125 
z
M 19.671875 64.796875 
L 19.671875 42.828125 
L 34.28125 42.828125 
Q 41.5 42.828125 45.03125 45.53125 
Q 48.578125 48.25 48.578125 53.8125 
Q 48.578125 59.328125 45.03125 62.0625 
Q 41.5 64.796875 34.28125 64.796875 
z
M 9.8125 72.90625 
L 35.015625 72.90625 
Q 46.296875 72.90625 52.390625 68.21875 
Q 58.5 63.53125 58.5 54.890625 
Q 58.5 48.1875 55.375 44.234375 
Q 52.25 40.28125 46.1875 39.3125 
Q 53.46875 37.75 57.5 32.78125 
Q 61.53125 27.828125 61.53125 20.40625 
Q 61.53125 10.640625 54.890625 5.3125 
Q 48.25 0 35.984375 0 
L 9.8125 0 
z
" id="DejaVuSans-66"/>
      <path d="M 45.40625 27.984375 
Q 45.40625 37.75 41.375 43.109375 
Q 37.359375 48.484375 30.078125 48.484375 
Q 22.859375 48.484375 18.828125 43.109375 
Q 14.796875 37.75 14.796875 27.984375 
Q 14.796875 18.265625 18.828125 12.890625 
Q 22.859375 7.515625 30.078125 7.515625 
Q 37.359375 7.515625 41.375 12.890625 
Q 45.40625 18.265625 45.40625 27.984375 
z
M 54.390625 6.78125 
Q 54.390625 -7.171875 48.1875 -13.984375 
Q 42 -20.796875 29.203125 -20.796875 
Q 24.46875 -20.796875 20.265625 -20.09375 
Q 16.0625 -19.390625 12.109375 -17.921875 
L 12.109375 -9.1875 
Q 16.0625 -11.328125 19.921875 -12.34375 
Q 23.78125 -13.375 27.78125 -13.375 
Q 36.625 -13.375 41.015625 -8.765625 
Q 45.40625 -4.15625 45.40625 5.171875 
L 45.40625 9.625 
Q 42.625 4.78125 38.28125 2.390625 
Q 33.9375 0 27.875 0 
Q 17.828125 0 11.671875 7.65625 
Q 5.515625 15.328125 5.515625 27.984375 
Q 5.515625 40.671875 11.671875 48.328125 
Q 17.828125 56 27.875 56 
Q 33.9375 56 38.28125 53.609375 
Q 42.625 51.21875 45.40625 46.390625 
L 45.40625 54.6875 
L 54.390625 54.6875 
z
" id="DejaVuSans-103"/>
     </defs>
     <use xlink:href="#DejaVuSans-66"/>
     <use x="68.603516" xlink:href="#DejaVuSans-111"/>
     <use x="129.785156" xlink:href="#DejaVuSans-101"/>
     <use x="191.308594" xlink:href="#DejaVuSans-105"/>
     <use x="219.091797" xlink:href="#DejaVuSans-110"/>
     <use x="282.470703" xlink:href="#DejaVuSans-103"/>
    </g>
   </g>
   <g id="text_19">
    <!-- Bank of America -->
    <g style="opacity:0.75;" transform="translate(196.301725 47.597489)scale(0.05 -0.05)">
     <defs>
      <path d="M 9.078125 75.984375 
L 18.109375 75.984375 
L 18.109375 31.109375 
L 44.921875 54.6875 
L 56.390625 54.6875 
L 27.390625 29.109375 
L 57.625 0 
L 45.90625 0 
L 18.109375 26.703125 
L 18.109375 0 
L 9.078125 0 
z
" id="DejaVuSans-107"/>
      <path d="M 37.109375 75.984375 
L 37.109375 68.5 
L 28.515625 68.5 
Q 23.6875 68.5 21.796875 66.546875 
Q 19.921875 64.59375 19.921875 59.515625 
L 19.921875 54.6875 
L 34.71875 54.6875 
L 34.71875 47.703125 
L 19.921875 47.703125 
L 19.921875 0 
L 10.890625 0 
L 10.890625 47.703125 
L 2.296875 47.703125 
L 2.296875 54.6875 
L 10.890625 54.6875 
L 10.890625 58.5 
Q 10.890625 67.625 15.140625 71.796875 
Q 19.390625 75.984375 28.609375 75.984375 
z
" id="DejaVuSans-102"/>
     </defs>
     <use xlink:href="#DejaVuSans-66"/>
     <use x="68.603516" xlink:href="#DejaVuSans-97"/>
     <use x="129.882812" xlink:href="#DejaVuSans-110"/>
     <use x="193.261719" xlink:href="#DejaVuSans-107"/>
     <use x="251.171875" xlink:href="#DejaVuSans-32"/>
     <use x="282.958984" xlink:href="#DejaVuSans-111"/>
     <use x="344.140625" xlink:href="#DejaVuSans-102"/>
     <use x="379.345703" xlink:href="#DejaVuSans-32"/>
     <use x="411.132812" xlink:href="#DejaVuSans-65"/>
     <use x="479.541016" xlink:href="#DejaVuSans-109"/>
     <use x="576.953125" xlink:href="#DejaVuSans-101"/>
     <use x="638.476562" xlink:href="#DejaVuSans-114"/>
     <use x="679.589844" xlink:href="#DejaVuSans-105"/>
     <use x="707.373047" xlink:href="#DejaVuSans-99"/>
     <use x="762.353516" xlink:href="#DejaVuSans-97"/>
    </g>
   </g>
   <g id="text_20">
    <!-- British American Tobacco -->
    <g style="opacity:0.75;" transform="translate(228.219941 170.418279)scale(0.05 -0.05)">
     <defs>
      <path d="M 18.3125 70.21875 
L 18.3125 54.6875 
L 36.8125 54.6875 
L 36.8125 47.703125 
L 18.3125 47.703125 
L 18.3125 18.015625 
Q 18.3125 11.328125 20.140625 9.421875 
Q 21.96875 7.515625 27.59375 7.515625 
L 36.8125 7.515625 
L 36.8125 0 
L 27.59375 0 
Q 17.1875 0 13.234375 3.875 
Q 9.28125 7.765625 9.28125 18.015625 
L 9.28125 47.703125 
L 2.6875 47.703125 
L 2.6875 54.6875 
L 9.28125 54.6875 
L 9.28125 70.21875 
z
" id="DejaVuSans-116"/>
      <path d="M 54.890625 33.015625 
L 54.890625 0 
L 45.90625 0 
L 45.90625 32.71875 
Q 45.90625 40.484375 42.875 44.328125 
Q 39.84375 48.1875 33.796875 48.1875 
Q 26.515625 48.1875 22.3125 43.546875 
Q 18.109375 38.921875 18.109375 30.90625 
L 18.109375 0 
L 9.078125 0 
L 9.078125 75.984375 
L 18.109375 75.984375 
L 18.109375 46.1875 
Q 21.34375 51.125 25.703125 53.5625 
Q 30.078125 56 35.796875 56 
Q 45.21875 56 50.046875 50.171875 
Q 54.890625 44.34375 54.890625 33.015625 
z
" id="DejaVuSans-104"/>
      <path d="M -0.296875 72.90625 
L 61.375 72.90625 
L 61.375 64.59375 
L 35.5 64.59375 
L 35.5 0 
L 25.59375 0 
L 25.59375 64.59375 
L -0.296875 64.59375 
z
" id="DejaVuSans-84"/>
      <path d="M 48.6875 27.296875 
Q 48.6875 37.203125 44.609375 42.84375 
Q 40.53125 48.484375 33.40625 48.484375 
Q 26.265625 48.484375 22.1875 42.84375 
Q 18.109375 37.203125 18.109375 27.296875 
Q 18.109375 17.390625 22.1875 11.75 
Q 26.265625 6.109375 33.40625 6.109375 
Q 40.53125 6.109375 44.609375 11.75 
Q 48.6875 17.390625 48.6875 27.296875 
z
M 18.109375 46.390625 
Q 20.953125 51.265625 25.265625 53.625 
Q 29.59375 56 35.59375 56 
Q 45.5625 56 51.78125 48.09375 
Q 58.015625 40.1875 58.015625 27.296875 
Q 58.015625 14.40625 51.78125 6.484375 
Q 45.5625 -1.421875 35.59375 -1.421875 
Q 29.59375 -1.421875 25.265625 0.953125 
Q 20.953125 3.328125 18.109375 8.203125 
L 18.109375 0 
L 9.078125 0 
L 9.078125 75.984375 
L 18.109375 75.984375 
z
" id="DejaVuSans-98"/>
     </defs>
     <use xlink:href="#DejaVuSans-66"/>
     <use x="68.603516" xlink:href="#DejaVuSans-114"/>
     <use x="109.716797" xlink:href="#DejaVuSans-105"/>
     <use x="137.5" xlink:href="#DejaVuSans-116"/>
     <use x="176.708984" xlink:href="#DejaVuSans-105"/>
     <use x="204.492188" xlink:href="#DejaVuSans-115"/>
     <use x="256.591797" xlink:href="#DejaVuSans-104"/>
     <use x="319.970703" xlink:href="#DejaVuSans-32"/>
     <use x="351.757812" xlink:href="#DejaVuSans-65"/>
     <use x="420.166016" xlink:href="#DejaVuSans-109"/>
     <use x="517.578125" xlink:href="#DejaVuSans-101"/>
     <use x="579.101562" xlink:href="#DejaVuSans-114"/>
     <use x="620.214844" xlink:href="#DejaVuSans-105"/>
     <use x="647.998047" xlink:href="#DejaVuSans-99"/>
     <use x="702.978516" xlink:href="#DejaVuSans-97"/>
     <use x="764.257812" xlink:href="#DejaVuSans-110"/>
     <use x="827.636719" xlink:href="#DejaVuSans-32"/>
     <use x="859.423828" xlink:href="#DejaVuSans-84"/>
     <use x="903.507812" xlink:href="#DejaVuSans-111"/>
     <use x="964.689453" xlink:href="#DejaVuSans-98"/>
     <use x="1028.166016" xlink:href="#DejaVuSans-97"/>
     <use x="1089.445312" xlink:href="#DejaVuSans-99"/>
     <use x="1144.425781" xlink:href="#DejaVuSans-99"/>
     <use x="1199.40625" xlink:href="#DejaVuSans-111"/>
    </g>
   </g>
   <g id="text_21">
    <!-- Canon -->
    <g style="opacity:0.75;" transform="translate(137.509484 85.550272)scale(0.05 -0.05)">
     <defs>
      <path d="M 64.40625 67.28125 
L 64.40625 56.890625 
Q 59.421875 61.53125 53.78125 63.8125 
Q 48.140625 66.109375 41.796875 66.109375 
Q 29.296875 66.109375 22.65625 58.46875 
Q 16.015625 50.828125 16.015625 36.375 
Q 16.015625 21.96875 22.65625 14.328125 
Q 29.296875 6.6875 41.796875 6.6875 
Q 48.140625 6.6875 53.78125 8.984375 
Q 59.421875 11.28125 64.40625 15.921875 
L 64.40625 5.609375 
Q 59.234375 2.09375 53.4375 0.328125 
Q 47.65625 -1.421875 41.21875 -1.421875 
Q 24.65625 -1.421875 15.125 8.703125 
Q 5.609375 18.84375 5.609375 36.375 
Q 5.609375 53.953125 15.125 64.078125 
Q 24.65625 74.21875 41.21875 74.21875 
Q 47.75 74.21875 53.53125 72.484375 
Q 59.328125 70.75 64.40625 67.28125 
z
" id="DejaVuSans-67"/>
     </defs>
     <use xlink:href="#DejaVuSans-67"/>
     <use x="69.824219" xlink:href="#DejaVuSans-97"/>
     <use x="131.103516" xlink:href="#DejaVuSans-110"/>
     <use x="194.482422" xlink:href="#DejaVuSans-111"/>
     <use x="255.664062" xlink:href="#DejaVuSans-110"/>
    </g>
   </g>
   <g id="text_22">
    <!-- Caterpillar -->
    <g style="opacity:0.75;" transform="translate(190.771555 111.273925)scale(0.05 -0.05)">
     <use xlink:href="#DejaVuSans-67"/>
     <use x="69.824219" xlink:href="#DejaVuSans-97"/>
     <use x="131.103516" xlink:href="#DejaVuSans-116"/>
     <use x="170.3125" xlink:href="#DejaVuSans-101"/>
     <use x="231.835938" xlink:href="#DejaVuSans-114"/>
     <use x="272.949219" xlink:href="#DejaVuSans-112"/>
     <use x="336.425781" xlink:href="#DejaVuSans-105"/>
     <use x="364.208984" xlink:href="#DejaVuSans-108"/>
     <use x="391.992188" xlink:href="#DejaVuSans-108"/>
     <use x="419.775391" xlink:href="#DejaVuSans-97"/>
     <use x="481.054688" xlink:href="#DejaVuSans-114"/>
    </g>
   </g>
   <g id="text_23">
    <!-- Colgate-Palmolive -->
    <g style="opacity:0.75;" transform="translate(301.792951 222.350237)scale(0.05 -0.05)">
     <defs>
      <path d="M 4.890625 31.390625 
L 31.203125 31.390625 
L 31.203125 23.390625 
L 4.890625 23.390625 
z
" id="DejaVuSans-45"/>
      <path d="M 19.671875 64.796875 
L 19.671875 37.40625 
L 32.078125 37.40625 
Q 38.96875 37.40625 42.71875 40.96875 
Q 46.484375 44.53125 46.484375 51.125 
Q 46.484375 57.671875 42.71875 61.234375 
Q 38.96875 64.796875 32.078125 64.796875 
z
M 9.8125 72.90625 
L 32.078125 72.90625 
Q 44.34375 72.90625 50.609375 67.359375 
Q 56.890625 61.8125 56.890625 51.125 
Q 56.890625 40.328125 50.609375 34.8125 
Q 44.34375 29.296875 32.078125 29.296875 
L 19.671875 29.296875 
L 19.671875 0 
L 9.8125 0 
z
" id="DejaVuSans-80"/>
      <path d="M 2.984375 54.6875 
L 12.5 54.6875 
L 29.59375 8.796875 
L 46.6875 54.6875 
L 56.203125 54.6875 
L 35.6875 0 
L 23.484375 0 
z
" id="DejaVuSans-118"/>
     </defs>
     <use xlink:href="#DejaVuSans-67"/>
     <use x="69.824219" xlink:href="#DejaVuSans-111"/>
     <use x="131.005859" xlink:href="#DejaVuSans-108"/>
     <use x="158.789062" xlink:href="#DejaVuSans-103"/>
     <use x="222.265625" xlink:href="#DejaVuSans-97"/>
     <use x="283.544922" xlink:href="#DejaVuSans-116"/>
     <use x="322.753906" xlink:href="#DejaVuSans-101"/>
     <use x="384.277344" xlink:href="#DejaVuSans-45"/>
     <use x="420.361328" xlink:href="#DejaVuSans-80"/>
     <use x="476.164062" xlink:href="#DejaVuSans-97"/>
     <use x="537.443359" xlink:href="#DejaVuSans-108"/>
     <use x="565.226562" xlink:href="#DejaVuSans-109"/>
     <use x="662.638672" xlink:href="#DejaVuSans-111"/>
     <use x="723.820312" xlink:href="#DejaVuSans-108"/>
     <use x="751.603516" xlink:href="#DejaVuSans-105"/>
     <use x="779.386719" xlink:href="#DejaVuSans-118"/>
     <use x="838.566406" xlink:href="#DejaVuSans-101"/>
    </g>
   </g>
   <g id="text_24">
    <!-- ConocoPhillips -->
    <g style="opacity:0.75;" transform="translate(244.420086 116.110264)scale(0.05 -0.05)">
     <use xlink:href="#DejaVuSans-67"/>
     <use x="69.824219" xlink:href="#DejaVuSans-111"/>
     <use x="131.005859" xlink:href="#DejaVuSans-110"/>
     <use x="194.384766" xlink:href="#DejaVuSans-111"/>
     <use x="255.566406" xlink:href="#DejaVuSans-99"/>
     <use x="310.546875" xlink:href="#DejaVuSans-111"/>
     <use x="371.728516" xlink:href="#DejaVuSans-80"/>
     <use x="432.03125" xlink:href="#DejaVuSans-104"/>
     <use x="495.410156" xlink:href="#DejaVuSans-105"/>
     <use x="523.193359" xlink:href="#DejaVuSans-108"/>
     <use x="550.976562" xlink:href="#DejaVuSans-108"/>
     <use x="578.759766" xlink:href="#DejaVuSans-105"/>
     <use x="606.542969" xlink:href="#DejaVuSans-112"/>
     <use x="670.019531" xlink:href="#DejaVuSans-115"/>
    </g>
   </g>
   <g id="text_25">
    <!-- Cisco -->
    <g style="opacity:0.75;" transform="translate(87.4679 116.636094)scale(0.05 -0.05)">
     <use xlink:href="#DejaVuSans-67"/>
     <use x="69.824219" xlink:href="#DejaVuSans-105"/>
     <use x="97.607422" xlink:href="#DejaVuSans-115"/>
     <use x="149.707031" xlink:href="#DejaVuSans-99"/>
     <use x="204.6875" xlink:href="#DejaVuSans-111"/>
    </g>
   </g>
   <g id="text_26">
    <!-- Chevron -->
    <g style="opacity:0.75;" transform="translate(231.488319 121.975971)scale(0.05 -0.05)">
     <use xlink:href="#DejaVuSans-67"/>
     <use x="69.824219" xlink:href="#DejaVuSans-104"/>
     <use x="133.203125" xlink:href="#DejaVuSans-101"/>
     <use x="194.726562" xlink:href="#DejaVuSans-118"/>
     <use x="253.90625" xlink:href="#DejaVuSans-114"/>
     <use x="292.769531" xlink:href="#DejaVuSans-111"/>
     <use x="353.951172" xlink:href="#DejaVuSans-110"/>
    </g>
   </g>
   <g id="text_27">
    <!-- DuPont de Nemours -->
    <g style="opacity:0.75;" transform="translate(203.414687 107.694107)scale(0.05 -0.05)">
     <defs>
      <path d="M 19.671875 64.796875 
L 19.671875 8.109375 
L 31.59375 8.109375 
Q 46.6875 8.109375 53.6875 14.9375 
Q 60.6875 21.78125 60.6875 36.53125 
Q 60.6875 51.171875 53.6875 57.984375 
Q 46.6875 64.796875 31.59375 64.796875 
z
M 9.8125 72.90625 
L 30.078125 72.90625 
Q 51.265625 72.90625 61.171875 64.09375 
Q 71.09375 55.28125 71.09375 36.53125 
Q 71.09375 17.671875 61.125 8.828125 
Q 51.171875 0 30.078125 0 
L 9.8125 0 
z
" id="DejaVuSans-68"/>
      <path d="M 8.5 21.578125 
L 8.5 54.6875 
L 17.484375 54.6875 
L 17.484375 21.921875 
Q 17.484375 14.15625 20.5 10.265625 
Q 23.53125 6.390625 29.59375 6.390625 
Q 36.859375 6.390625 41.078125 11.03125 
Q 45.3125 15.671875 45.3125 23.6875 
L 45.3125 54.6875 
L 54.296875 54.6875 
L 54.296875 0 
L 45.3125 0 
L 45.3125 8.40625 
Q 42.046875 3.421875 37.71875 1 
Q 33.40625 -1.421875 27.6875 -1.421875 
Q 18.265625 -1.421875 13.375 4.4375 
Q 8.5 10.296875 8.5 21.578125 
z
M 31.109375 56 
z
" id="DejaVuSans-117"/>
      <path d="M 45.40625 46.390625 
L 45.40625 75.984375 
L 54.390625 75.984375 
L 54.390625 0 
L 45.40625 0 
L 45.40625 8.203125 
Q 42.578125 3.328125 38.25 0.953125 
Q 33.9375 -1.421875 27.875 -1.421875 
Q 17.96875 -1.421875 11.734375 6.484375 
Q 5.515625 14.40625 5.515625 27.296875 
Q 5.515625 40.1875 11.734375 48.09375 
Q 17.96875 56 27.875 56 
Q 33.9375 56 38.25 53.625 
Q 42.578125 51.265625 45.40625 46.390625 
z
M 14.796875 27.296875 
Q 14.796875 17.390625 18.875 11.75 
Q 22.953125 6.109375 30.078125 6.109375 
Q 37.203125 6.109375 41.296875 11.75 
Q 45.40625 17.390625 45.40625 27.296875 
Q 45.40625 37.203125 41.296875 42.84375 
Q 37.203125 48.484375 30.078125 48.484375 
Q 22.953125 48.484375 18.875 42.84375 
Q 14.796875 37.203125 14.796875 27.296875 
z
" id="DejaVuSans-100"/>
      <path d="M 9.8125 72.90625 
L 23.09375 72.90625 
L 55.421875 11.921875 
L 55.421875 72.90625 
L 64.984375 72.90625 
L 64.984375 0 
L 51.703125 0 
L 19.390625 60.984375 
L 19.390625 0 
L 9.8125 0 
z
" id="DejaVuSans-78"/>
     </defs>
     <use xlink:href="#DejaVuSans-68"/>
     <use x="77.001953" xlink:href="#DejaVuSans-117"/>
     <use x="140.380859" xlink:href="#DejaVuSans-80"/>
     <use x="197.058594" xlink:href="#DejaVuSans-111"/>
     <use x="258.240234" xlink:href="#DejaVuSans-110"/>
     <use x="321.619141" xlink:href="#DejaVuSans-116"/>
     <use x="360.828125" xlink:href="#DejaVuSans-32"/>
     <use x="392.615234" xlink:href="#DejaVuSans-100"/>
     <use x="456.091797" xlink:href="#DejaVuSans-101"/>
     <use x="517.615234" xlink:href="#DejaVuSans-32"/>
     <use x="549.402344" xlink:href="#DejaVuSans-78"/>
     <use x="624.207031" xlink:href="#DejaVuSans-101"/>
     <use x="685.730469" xlink:href="#DejaVuSans-109"/>
     <use x="783.142578" xlink:href="#DejaVuSans-111"/>
     <use x="844.324219" xlink:href="#DejaVuSans-117"/>
     <use x="907.703125" xlink:href="#DejaVuSans-114"/>
     <use x="948.816406" xlink:href="#DejaVuSans-115"/>
    </g>
   </g>
   <g id="text_28">
    <!-- Dell -->
    <g style="opacity:0.75;" transform="translate(46.20503 101.910814)scale(0.05 -0.05)">
     <use xlink:href="#DejaVuSans-68"/>
     <use x="77.001953" xlink:href="#DejaVuSans-101"/>
     <use x="138.525391" xlink:href="#DejaVuSans-108"/>
     <use x="166.308594" xlink:href="#DejaVuSans-108"/>
    </g>
   </g>
   <g id="text_29">
    <!-- Ford -->
    <g style="opacity:0.75;" transform="translate(145.519544 56.170421)scale(0.05 -0.05)">
     <defs>
      <path d="M 9.8125 72.90625 
L 51.703125 72.90625 
L 51.703125 64.59375 
L 19.671875 64.59375 
L 19.671875 43.109375 
L 48.578125 43.109375 
L 48.578125 34.8125 
L 19.671875 34.8125 
L 19.671875 0 
L 9.8125 0 
z
" id="DejaVuSans-70"/>
     </defs>
     <use xlink:href="#DejaVuSans-70"/>
     <use x="53.894531" xlink:href="#DejaVuSans-111"/>
     <use x="115.076172" xlink:href="#DejaVuSans-114"/>
     <use x="154.439453" xlink:href="#DejaVuSans-100"/>
    </g>
   </g>
   <g id="text_30">
    <!-- General Electrics -->
    <g style="opacity:0.75;" transform="translate(199.132923 87.963615)scale(0.05 -0.05)">
     <defs>
      <path d="M 9.8125 72.90625 
L 55.90625 72.90625 
L 55.90625 64.59375 
L 19.671875 64.59375 
L 19.671875 43.015625 
L 54.390625 43.015625 
L 54.390625 34.71875 
L 19.671875 34.71875 
L 19.671875 8.296875 
L 56.78125 8.296875 
L 56.78125 0 
L 9.8125 0 
z
" id="DejaVuSans-69"/>
     </defs>
     <use xlink:href="#DejaVuSans-71"/>
     <use x="77.490234" xlink:href="#DejaVuSans-101"/>
     <use x="139.013672" xlink:href="#DejaVuSans-110"/>
     <use x="202.392578" xlink:href="#DejaVuSans-101"/>
     <use x="263.916016" xlink:href="#DejaVuSans-114"/>
     <use x="305.029297" xlink:href="#DejaVuSans-97"/>
     <use x="366.308594" xlink:href="#DejaVuSans-108"/>
     <use x="394.091797" xlink:href="#DejaVuSans-32"/>
     <use x="425.878906" xlink:href="#DejaVuSans-69"/>
     <use x="489.0625" xlink:href="#DejaVuSans-108"/>
     <use x="516.845703" xlink:href="#DejaVuSans-101"/>
     <use x="578.369141" xlink:href="#DejaVuSans-99"/>
     <use x="633.349609" xlink:href="#DejaVuSans-116"/>
     <use x="672.558594" xlink:href="#DejaVuSans-114"/>
     <use x="713.671875" xlink:href="#DejaVuSans-105"/>
     <use x="741.455078" xlink:href="#DejaVuSans-99"/>
     <use x="796.435547" xlink:href="#DejaVuSans-115"/>
    </g>
   </g>
   <g id="text_31">
    <!-- Google/Alphabet -->
    <g style="opacity:0.75;" transform="translate(62.119605 158.192844)scale(0.05 -0.05)">
     <defs>
      <path d="M 25.390625 72.90625 
L 33.6875 72.90625 
L 8.296875 -9.28125 
L 0 -9.28125 
z
" id="DejaVuSans-47"/>
     </defs>
     <use xlink:href="#DejaVuSans-71"/>
     <use x="77.490234" xlink:href="#DejaVuSans-111"/>
     <use x="138.671875" xlink:href="#DejaVuSans-111"/>
     <use x="199.853516" xlink:href="#DejaVuSans-103"/>
     <use x="263.330078" xlink:href="#DejaVuSans-108"/>
     <use x="291.113281" xlink:href="#DejaVuSans-101"/>
     <use x="352.636719" xlink:href="#DejaVuSans-47"/>
     <use x="386.328125" xlink:href="#DejaVuSans-65"/>
     <use x="454.736328" xlink:href="#DejaVuSans-108"/>
     <use x="482.519531" xlink:href="#DejaVuSans-112"/>
     <use x="545.996094" xlink:href="#DejaVuSans-104"/>
     <use x="609.375" xlink:href="#DejaVuSans-97"/>
     <use x="670.654297" xlink:href="#DejaVuSans-98"/>
     <use x="734.130859" xlink:href="#DejaVuSans-101"/>
     <use x="795.654297" xlink:href="#DejaVuSans-116"/>
    </g>
   </g>
   <g id="text_32">
    <!-- Goldman Sachs -->
    <g style="opacity:0.75;" transform="translate(200.244803 43.891093)scale(0.05 -0.05)">
     <defs>
      <path d="M 53.515625 70.515625 
L 53.515625 60.890625 
Q 47.90625 63.578125 42.921875 64.890625 
Q 37.9375 66.21875 33.296875 66.21875 
Q 25.25 66.21875 20.875 63.09375 
Q 16.5 59.96875 16.5 54.203125 
Q 16.5 49.359375 19.40625 46.890625 
Q 22.3125 44.4375 30.421875 42.921875 
L 36.375 41.703125 
Q 47.40625 39.59375 52.65625 34.296875 
Q 57.90625 29 57.90625 20.125 
Q 57.90625 9.515625 50.796875 4.046875 
Q 43.703125 -1.421875 29.984375 -1.421875 
Q 24.8125 -1.421875 18.96875 -0.25 
Q 13.140625 0.921875 6.890625 3.21875 
L 6.890625 13.375 
Q 12.890625 10.015625 18.65625 8.296875 
Q 24.421875 6.59375 29.984375 6.59375 
Q 38.421875 6.59375 43.015625 9.90625 
Q 47.609375 13.234375 47.609375 19.390625 
Q 47.609375 24.75 44.3125 27.78125 
Q 41.015625 30.8125 33.5 32.328125 
L 27.484375 33.5 
Q 16.453125 35.6875 11.515625 40.375 
Q 6.59375 45.0625 6.59375 53.421875 
Q 6.59375 63.09375 13.40625 68.65625 
Q 20.21875 74.21875 32.171875 74.21875 
Q 37.3125 74.21875 42.625 73.28125 
Q 47.953125 72.359375 53.515625 70.515625 
z
" id="DejaVuSans-83"/>
     </defs>
     <use xlink:href="#DejaVuSans-71"/>
     <use x="77.490234" xlink:href="#DejaVuSans-111"/>
     <use x="138.671875" xlink:href="#DejaVuSans-108"/>
     <use x="166.455078" xlink:href="#DejaVuSans-100"/>
     <use x="229.931641" xlink:href="#DejaVuSans-109"/>
     <use x="327.34375" xlink:href="#DejaVuSans-97"/>
     <use x="388.623047" xlink:href="#DejaVuSans-110"/>
     <use x="452.001953" xlink:href="#DejaVuSans-32"/>
     <use x="483.789062" xlink:href="#DejaVuSans-83"/>
     <use x="547.265625" xlink:href="#DejaVuSans-97"/>
     <use x="608.544922" xlink:href="#DejaVuSans-99"/>
     <use x="663.525391" xlink:href="#DejaVuSans-104"/>
     <use x="726.904297" xlink:href="#DejaVuSans-115"/>
    </g>
   </g>
   <g id="text_33">
    <!-- GlaxoSmithKline -->
    <g style="opacity:0.75;" transform="translate(240.537182 160.435807)scale(0.05 -0.05)">
     <defs>
      <path d="M 9.8125 72.90625 
L 19.671875 72.90625 
L 19.671875 42.09375 
L 52.390625 72.90625 
L 65.09375 72.90625 
L 28.90625 38.921875 
L 67.671875 0 
L 54.6875 0 
L 19.671875 35.109375 
L 19.671875 0 
L 9.8125 0 
z
" id="DejaVuSans-75"/>
     </defs>
     <use xlink:href="#DejaVuSans-71"/>
     <use x="77.490234" xlink:href="#DejaVuSans-108"/>
     <use x="105.273438" xlink:href="#DejaVuSans-97"/>
     <use x="166.552734" xlink:href="#DejaVuSans-120"/>
     <use x="222.607422" xlink:href="#DejaVuSans-111"/>
     <use x="283.789062" xlink:href="#DejaVuSans-83"/>
     <use x="347.265625" xlink:href="#DejaVuSans-109"/>
     <use x="444.677734" xlink:href="#DejaVuSans-105"/>
     <use x="472.460938" xlink:href="#DejaVuSans-116"/>
     <use x="511.669922" xlink:href="#DejaVuSans-104"/>
     <use x="575.048828" xlink:href="#DejaVuSans-75"/>
     <use x="640.625" xlink:href="#DejaVuSans-108"/>
     <use x="668.408203" xlink:href="#DejaVuSans-105"/>
     <use x="696.191406" xlink:href="#DejaVuSans-110"/>
     <use x="759.570312" xlink:href="#DejaVuSans-101"/>
    </g>
   </g>
   <g id="text_34">
    <!-- Home Depot -->
    <g style="opacity:0.75;" transform="translate(166.9262 171.354554)scale(0.05 -0.05)">
     <defs>
      <path d="M 9.8125 72.90625 
L 19.671875 72.90625 
L 19.671875 43.015625 
L 55.515625 43.015625 
L 55.515625 72.90625 
L 65.375 72.90625 
L 65.375 0 
L 55.515625 0 
L 55.515625 34.71875 
L 19.671875 34.71875 
L 19.671875 0 
L 9.8125 0 
z
" id="DejaVuSans-72"/>
     </defs>
     <use xlink:href="#DejaVuSans-72"/>
     <use x="75.195312" xlink:href="#DejaVuSans-111"/>
     <use x="136.376953" xlink:href="#DejaVuSans-109"/>
     <use x="233.789062" xlink:href="#DejaVuSans-101"/>
     <use x="295.3125" xlink:href="#DejaVuSans-32"/>
     <use x="327.099609" xlink:href="#DejaVuSans-68"/>
     <use x="404.101562" xlink:href="#DejaVuSans-101"/>
     <use x="465.625" xlink:href="#DejaVuSans-112"/>
     <use x="529.101562" xlink:href="#DejaVuSans-111"/>
     <use x="590.283203" xlink:href="#DejaVuSans-116"/>
    </g>
   </g>
   <g id="text_35">
    <!-- Honda -->
    <g style="opacity:0.75;" transform="translate(140.071667 89.872455)scale(0.05 -0.05)">
     <use xlink:href="#DejaVuSans-72"/>
     <use x="75.195312" xlink:href="#DejaVuSans-111"/>
     <use x="136.376953" xlink:href="#DejaVuSans-110"/>
     <use x="199.755859" xlink:href="#DejaVuSans-100"/>
     <use x="263.232422" xlink:href="#DejaVuSans-97"/>
    </g>
   </g>
   <g id="text_36">
    <!-- HP -->
    <g style="opacity:0.75;" transform="translate(50.870203 90.306942)scale(0.05 -0.05)">
     <use xlink:href="#DejaVuSans-72"/>
     <use x="75.195312" xlink:href="#DejaVuSans-80"/>
    </g>
   </g>
   <g id="text_37">
    <!-- IBM -->
    <g style="opacity:0.75;" transform="translate(149.532667 136.188257)scale(0.05 -0.05)">
     <defs>
      <path d="M 9.8125 72.90625 
L 24.515625 72.90625 
L 43.109375 23.296875 
L 61.8125 72.90625 
L 76.515625 72.90625 
L 76.515625 0 
L 66.890625 0 
L 66.890625 64.015625 
L 48.09375 14.015625 
L 38.1875 14.015625 
L 19.390625 64.015625 
L 19.390625 0 
L 9.8125 0 
z
" id="DejaVuSans-77"/>
     </defs>
     <use xlink:href="#DejaVuSans-73"/>
     <use x="29.492188" xlink:href="#DejaVuSans-66"/>
     <use x="98.095703" xlink:href="#DejaVuSans-77"/>
    </g>
   </g>
   <g id="text_38">
    <!-- Intel -->
    <g style="opacity:0.75;" transform="translate(100.693168 120.798576)scale(0.05 -0.05)">
     <use xlink:href="#DejaVuSans-73"/>
     <use x="29.492188" xlink:href="#DejaVuSans-110"/>
     <use x="92.871094" xlink:href="#DejaVuSans-116"/>
     <use x="132.080078" xlink:href="#DejaVuSans-101"/>
     <use x="193.603516" xlink:href="#DejaVuSans-108"/>
    </g>
   </g>
   <g id="text_39">
    <!-- Johnson &amp; Johnson -->
    <g style="opacity:0.75;" transform="translate(281.681576 191.686262)scale(0.05 -0.05)">
     <defs>
      <path d="M 9.8125 72.90625 
L 19.671875 72.90625 
L 19.671875 5.078125 
Q 19.671875 -8.109375 14.671875 -14.0625 
Q 9.671875 -20.015625 -1.421875 -20.015625 
L -5.171875 -20.015625 
L -5.171875 -11.71875 
L -2.09375 -11.71875 
Q 4.4375 -11.71875 7.125 -8.046875 
Q 9.8125 -4.390625 9.8125 5.078125 
z
" id="DejaVuSans-74"/>
      <path d="M 24.3125 39.203125 
Q 19.875 35.25 17.796875 31.3125 
Q 15.71875 27.390625 15.71875 23.09375 
Q 15.71875 15.96875 20.890625 11.234375 
Q 26.078125 6.5 33.890625 6.5 
Q 38.53125 6.5 42.578125 8.03125 
Q 46.625 9.578125 50.203125 12.703125 
z
M 31.203125 44.671875 
L 56 19.28125 
Q 58.890625 23.640625 60.5 28.59375 
Q 62.109375 33.546875 62.40625 39.109375 
L 71.484375 39.109375 
Q 70.90625 32.671875 68.359375 26.359375 
Q 65.828125 20.0625 61.28125 13.921875 
L 74.90625 0 
L 62.59375 0 
L 55.609375 7.171875 
Q 50.53125 2.828125 44.96875 0.703125 
Q 39.40625 -1.421875 33.015625 -1.421875 
Q 21.234375 -1.421875 13.765625 5.296875 
Q 6.296875 12.015625 6.296875 22.515625 
Q 6.296875 28.765625 9.5625 34.25 
Q 12.84375 39.75 19.390625 44.578125 
Q 17.046875 47.65625 15.8125 50.703125 
Q 14.59375 53.765625 14.59375 56.6875 
Q 14.59375 64.59375 20.015625 69.40625 
Q 25.4375 74.21875 34.421875 74.21875 
Q 38.484375 74.21875 42.5 73.34375 
Q 46.53125 72.46875 50.6875 70.703125 
L 50.6875 61.8125 
Q 46.4375 64.109375 42.578125 65.296875 
Q 38.71875 66.5 35.40625 66.5 
Q 30.28125 66.5 27.078125 63.78125 
Q 23.875 61.078125 23.875 56.78125 
Q 23.875 54.296875 25.3125 51.78125 
Q 26.765625 49.265625 31.203125 44.671875 
z
" id="DejaVuSans-38"/>
     </defs>
     <use xlink:href="#DejaVuSans-74"/>
     <use x="29.492188" xlink:href="#DejaVuSans-111"/>
     <use x="90.673828" xlink:href="#DejaVuSans-104"/>
     <use x="154.052734" xlink:href="#DejaVuSans-110"/>
     <use x="217.431641" xlink:href="#DejaVuSans-115"/>
     <use x="269.53125" xlink:href="#DejaVuSans-111"/>
     <use x="330.712891" xlink:href="#DejaVuSans-110"/>
     <use x="394.091797" xlink:href="#DejaVuSans-32"/>
     <use x="425.878906" xlink:href="#DejaVuSans-38"/>
     <use x="503.857422" xlink:href="#DejaVuSans-32"/>
     <use x="535.644531" xlink:href="#DejaVuSans-74"/>
     <use x="565.136719" xlink:href="#DejaVuSans-111"/>
     <use x="626.318359" xlink:href="#DejaVuSans-104"/>
     <use x="689.697266" xlink:href="#DejaVuSans-110"/>
     <use x="753.076172" xlink:href="#DejaVuSans-115"/>
     <use x="805.175781" xlink:href="#DejaVuSans-111"/>
     <use x="866.357422" xlink:href="#DejaVuSans-110"/>
    </g>
   </g>
   <g id="text_40">
    <!-- JPMorgan Chase -->
    <g style="opacity:0.75;" transform="translate(197.680218 54.688405)scale(0.05 -0.05)">
     <use xlink:href="#DejaVuSans-74"/>
     <use x="29.492188" xlink:href="#DejaVuSans-80"/>
     <use x="89.794922" xlink:href="#DejaVuSans-77"/>
     <use x="176.074219" xlink:href="#DejaVuSans-111"/>
     <use x="237.255859" xlink:href="#DejaVuSans-114"/>
     <use x="276.619141" xlink:href="#DejaVuSans-103"/>
     <use x="340.095703" xlink:href="#DejaVuSans-97"/>
     <use x="401.375" xlink:href="#DejaVuSans-110"/>
     <use x="464.753906" xlink:href="#DejaVuSans-32"/>
     <use x="496.541016" xlink:href="#DejaVuSans-67"/>
     <use x="566.365234" xlink:href="#DejaVuSans-104"/>
     <use x="629.744141" xlink:href="#DejaVuSans-97"/>
     <use x="691.023438" xlink:href="#DejaVuSans-115"/>
     <use x="743.123047" xlink:href="#DejaVuSans-101"/>
    </g>
   </g>
   <g id="text_41">
    <!-- Kimberly-Clark -->
    <g style="opacity:0.75;" transform="translate(308.220966 223.284627)scale(0.05 -0.05)">
     <defs>
      <path d="M 32.171875 -5.078125 
Q 28.375 -14.84375 24.75 -17.8125 
Q 21.140625 -20.796875 15.09375 -20.796875 
L 7.90625 -20.796875 
L 7.90625 -13.28125 
L 13.1875 -13.28125 
Q 16.890625 -13.28125 18.9375 -11.515625 
Q 21 -9.765625 23.484375 -3.21875 
L 25.09375 0.875 
L 2.984375 54.6875 
L 12.5 54.6875 
L 29.59375 11.921875 
L 46.6875 54.6875 
L 56.203125 54.6875 
z
" id="DejaVuSans-121"/>
     </defs>
     <use xlink:href="#DejaVuSans-75"/>
     <use x="65.576172" xlink:href="#DejaVuSans-105"/>
     <use x="93.359375" xlink:href="#DejaVuSans-109"/>
     <use x="190.771484" xlink:href="#DejaVuSans-98"/>
     <use x="254.248047" xlink:href="#DejaVuSans-101"/>
     <use x="315.771484" xlink:href="#DejaVuSans-114"/>
     <use x="356.884766" xlink:href="#DejaVuSans-108"/>
     <use x="384.667969" xlink:href="#DejaVuSans-121"/>
     <use x="442.097656" xlink:href="#DejaVuSans-45"/>
     <use x="478.181641" xlink:href="#DejaVuSans-67"/>
     <use x="548.005859" xlink:href="#DejaVuSans-108"/>
     <use x="575.789062" xlink:href="#DejaVuSans-97"/>
     <use x="637.068359" xlink:href="#DejaVuSans-114"/>
     <use x="678.181641" xlink:href="#DejaVuSans-107"/>
    </g>
   </g>
   <g id="text_42">
    <!-- Coca Cola -->
    <g style="opacity:0.75;" transform="translate(259.146332 215.789073)scale(0.05 -0.05)">
     <use xlink:href="#DejaVuSans-67"/>
     <use x="69.824219" xlink:href="#DejaVuSans-111"/>
     <use x="131.005859" xlink:href="#DejaVuSans-99"/>
     <use x="185.986328" xlink:href="#DejaVuSans-97"/>
     <use x="247.265625" xlink:href="#DejaVuSans-32"/>
     <use x="279.052734" xlink:href="#DejaVuSans-67"/>
     <use x="348.876953" xlink:href="#DejaVuSans-111"/>
     <use x="410.058594" xlink:href="#DejaVuSans-108"/>
     <use x="437.841797" xlink:href="#DejaVuSans-97"/>
    </g>
   </g>
   <g id="text_43">
    <!-- Lookheed Martin -->
    <g style="opacity:0.75;" transform="translate(127.126379 201.771029)scale(0.05 -0.05)">
     <defs>
      <path d="M 9.8125 72.90625 
L 19.671875 72.90625 
L 19.671875 8.296875 
L 55.171875 8.296875 
L 55.171875 0 
L 9.8125 0 
z
" id="DejaVuSans-76"/>
     </defs>
     <use xlink:href="#DejaVuSans-76"/>
     <use x="53.962891" xlink:href="#DejaVuSans-111"/>
     <use x="115.144531" xlink:href="#DejaVuSans-111"/>
     <use x="176.326172" xlink:href="#DejaVuSans-107"/>
     <use x="234.236328" xlink:href="#DejaVuSans-104"/>
     <use x="297.615234" xlink:href="#DejaVuSans-101"/>
     <use x="359.138672" xlink:href="#DejaVuSans-101"/>
     <use x="420.662109" xlink:href="#DejaVuSans-100"/>
     <use x="484.138672" xlink:href="#DejaVuSans-32"/>
     <use x="515.925781" xlink:href="#DejaVuSans-77"/>
     <use x="602.205078" xlink:href="#DejaVuSans-97"/>
     <use x="663.484375" xlink:href="#DejaVuSans-114"/>
     <use x="704.597656" xlink:href="#DejaVuSans-116"/>
     <use x="743.806641" xlink:href="#DejaVuSans-105"/>
     <use x="771.589844" xlink:href="#DejaVuSans-110"/>
    </g>
   </g>
   <g id="text_44">
    <!-- MasterCard -->
    <g style="opacity:0.75;" transform="translate(273.5344 79.365012)scale(0.05 -0.05)">
     <use xlink:href="#DejaVuSans-77"/>
     <use x="86.279297" xlink:href="#DejaVuSans-97"/>
     <use x="147.558594" xlink:href="#DejaVuSans-115"/>
     <use x="199.658203" xlink:href="#DejaVuSans-116"/>
     <use x="238.867188" xlink:href="#DejaVuSans-101"/>
     <use x="300.390625" xlink:href="#DejaVuSans-114"/>
     <use x="341.503906" xlink:href="#DejaVuSans-67"/>
     <use x="411.328125" xlink:href="#DejaVuSans-97"/>
     <use x="472.607422" xlink:href="#DejaVuSans-114"/>
     <use x="511.970703" xlink:href="#DejaVuSans-100"/>
    </g>
   </g>
   <g id="text_45">
    <!-- McDonalds -->
    <g style="opacity:0.75;" transform="translate(307.432186 147.667421)scale(0.05 -0.05)">
     <use xlink:href="#DejaVuSans-77"/>
     <use x="86.279297" xlink:href="#DejaVuSans-99"/>
     <use x="141.259766" xlink:href="#DejaVuSans-68"/>
     <use x="218.261719" xlink:href="#DejaVuSans-111"/>
     <use x="279.443359" xlink:href="#DejaVuSans-110"/>
     <use x="342.822266" xlink:href="#DejaVuSans-97"/>
     <use x="404.101562" xlink:href="#DejaVuSans-108"/>
     <use x="431.884766" xlink:href="#DejaVuSans-100"/>
     <use x="495.361328" xlink:href="#DejaVuSans-115"/>
    </g>
   </g>
   <g id="text_46">
    <!-- 3M -->
    <g style="opacity:0.75;" transform="translate(187.354374 121.073453)scale(0.05 -0.05)">
     <use xlink:href="#DejaVuSans-51"/>
     <use x="63.623047" xlink:href="#DejaVuSans-77"/>
    </g>
   </g>
   <g id="text_47">
    <!-- Microsoft -->
    <g style="opacity:0.75;" transform="translate(97.011823 136.728357)scale(0.05 -0.05)">
     <use xlink:href="#DejaVuSans-77"/>
     <use x="86.279297" xlink:href="#DejaVuSans-105"/>
     <use x="114.0625" xlink:href="#DejaVuSans-99"/>
     <use x="169.042969" xlink:href="#DejaVuSans-114"/>
     <use x="207.90625" xlink:href="#DejaVuSans-111"/>
     <use x="269.087891" xlink:href="#DejaVuSans-115"/>
     <use x="321.1875" xlink:href="#DejaVuSans-111"/>
     <use x="382.369141" xlink:href="#DejaVuSans-102"/>
     <use x="415.824219" xlink:href="#DejaVuSans-116"/>
    </g>
   </g>
   <g id="text_48">
    <!-- Mitsubishi -->
    <g style="opacity:0.75;" transform="translate(124.004721 77.815212)scale(0.05 -0.05)">
     <use xlink:href="#DejaVuSans-77"/>
     <use x="86.279297" xlink:href="#DejaVuSans-105"/>
     <use x="114.0625" xlink:href="#DejaVuSans-116"/>
     <use x="153.271484" xlink:href="#DejaVuSans-115"/>
     <use x="205.371094" xlink:href="#DejaVuSans-117"/>
     <use x="268.75" xlink:href="#DejaVuSans-98"/>
     <use x="332.226562" xlink:href="#DejaVuSans-105"/>
     <use x="360.009766" xlink:href="#DejaVuSans-115"/>
     <use x="412.109375" xlink:href="#DejaVuSans-104"/>
     <use x="475.488281" xlink:href="#DejaVuSans-105"/>
    </g>
   </g>
   <g id="text_49">
    <!-- Navistar -->
    <g style="opacity:0.75;" transform="translate(110.6865 38.044571)scale(0.05 -0.05)">
     <use xlink:href="#DejaVuSans-78"/>
     <use x="74.804688" xlink:href="#DejaVuSans-97"/>
     <use x="136.083984" xlink:href="#DejaVuSans-118"/>
     <use x="195.263672" xlink:href="#DejaVuSans-105"/>
     <use x="223.046875" xlink:href="#DejaVuSans-115"/>
     <use x="275.146484" xlink:href="#DejaVuSans-116"/>
     <use x="314.355469" xlink:href="#DejaVuSans-97"/>
     <use x="375.634766" xlink:href="#DejaVuSans-114"/>
    </g>
   </g>
   <g id="text_50">
    <!-- Northrop Grumman -->
    <g style="opacity:0.75;" transform="translate(129.773165 196.651246)scale(0.05 -0.05)">
     <use xlink:href="#DejaVuSans-78"/>
     <use x="74.804688" xlink:href="#DejaVuSans-111"/>
     <use x="135.986328" xlink:href="#DejaVuSans-114"/>
     <use x="177.099609" xlink:href="#DejaVuSans-116"/>
     <use x="216.308594" xlink:href="#DejaVuSans-104"/>
     <use x="279.6875" xlink:href="#DejaVuSans-114"/>
     <use x="318.550781" xlink:href="#DejaVuSans-111"/>
     <use x="379.732422" xlink:href="#DejaVuSans-112"/>
     <use x="443.208984" xlink:href="#DejaVuSans-32"/>
     <use x="474.996094" xlink:href="#DejaVuSans-71"/>
     <use x="552.486328" xlink:href="#DejaVuSans-114"/>
     <use x="593.599609" xlink:href="#DejaVuSans-117"/>
     <use x="656.978516" xlink:href="#DejaVuSans-109"/>
     <use x="754.390625" xlink:href="#DejaVuSans-109"/>
     <use x="851.802734" xlink:href="#DejaVuSans-97"/>
     <use x="913.082031" xlink:href="#DejaVuSans-110"/>
    </g>
   </g>
   <g id="text_51">
    <!-- Novartis -->
    <g style="opacity:0.75;" transform="translate(239.133998 159.158259)scale(0.05 -0.05)">
     <use xlink:href="#DejaVuSans-78"/>
     <use x="74.804688" xlink:href="#DejaVuSans-111"/>
     <use x="135.986328" xlink:href="#DejaVuSans-118"/>
     <use x="195.166016" xlink:href="#DejaVuSans-97"/>
     <use x="256.445312" xlink:href="#DejaVuSans-114"/>
     <use x="297.558594" xlink:href="#DejaVuSans-116"/>
     <use x="336.767578" xlink:href="#DejaVuSans-105"/>
     <use x="364.550781" xlink:href="#DejaVuSans-115"/>
    </g>
   </g>
   <g id="text_52">
    <!-- Pepsi -->
    <g style="opacity:0.75;" transform="translate(265.735217 222.16764)scale(0.05 -0.05)">
     <use xlink:href="#DejaVuSans-80"/>
     <use x="56.677734" xlink:href="#DejaVuSans-101"/>
     <use x="118.201172" xlink:href="#DejaVuSans-112"/>
     <use x="181.677734" xlink:href="#DejaVuSans-115"/>
     <use x="233.777344" xlink:href="#DejaVuSans-105"/>
    </g>
   </g>
   <g id="text_53">
    <!-- Pfizer -->
    <g style="opacity:0.75;" transform="translate(285.302108 170.799794)scale(0.05 -0.05)">
     <use xlink:href="#DejaVuSans-80"/>
     <use x="60.302734" xlink:href="#DejaVuSans-102"/>
     <use x="95.507812" xlink:href="#DejaVuSans-105"/>
     <use x="123.291016" xlink:href="#DejaVuSans-122"/>
     <use x="175.78125" xlink:href="#DejaVuSans-101"/>
     <use x="237.304688" xlink:href="#DejaVuSans-114"/>
    </g>
   </g>
   <g id="text_54">
    <!-- Procter Gamble -->
    <g style="opacity:0.75;" transform="translate(300.397612 215.695919)scale(0.05 -0.05)">
     <use xlink:href="#DejaVuSans-80"/>
     <use x="58.552734" xlink:href="#DejaVuSans-114"/>
     <use x="97.416016" xlink:href="#DejaVuSans-111"/>
     <use x="158.597656" xlink:href="#DejaVuSans-99"/>
     <use x="213.578125" xlink:href="#DejaVuSans-116"/>
     <use x="252.787109" xlink:href="#DejaVuSans-101"/>
     <use x="314.310547" xlink:href="#DejaVuSans-114"/>
     <use x="355.423828" xlink:href="#DejaVuSans-32"/>
     <use x="387.210938" xlink:href="#DejaVuSans-71"/>
     <use x="464.701172" xlink:href="#DejaVuSans-97"/>
     <use x="525.980469" xlink:href="#DejaVuSans-109"/>
     <use x="623.392578" xlink:href="#DejaVuSans-98"/>
     <use x="686.869141" xlink:href="#DejaVuSans-108"/>
     <use x="714.652344" xlink:href="#DejaVuSans-101"/>
    </g>
   </g>
   <g id="text_55">
    <!-- Philip Morris -->
    <g style="opacity:0.75;" transform="translate(238.855612 203.745406)scale(0.05 -0.05)">
     <use xlink:href="#DejaVuSans-80"/>
     <use x="60.302734" xlink:href="#DejaVuSans-104"/>
     <use x="123.681641" xlink:href="#DejaVuSans-105"/>
     <use x="151.464844" xlink:href="#DejaVuSans-108"/>
     <use x="179.248047" xlink:href="#DejaVuSans-105"/>
     <use x="207.03125" xlink:href="#DejaVuSans-112"/>
     <use x="270.507812" xlink:href="#DejaVuSans-32"/>
     <use x="302.294922" xlink:href="#DejaVuSans-77"/>
     <use x="388.574219" xlink:href="#DejaVuSans-111"/>
     <use x="449.755859" xlink:href="#DejaVuSans-114"/>
     <use x="489.119141" xlink:href="#DejaVuSans-114"/>
     <use x="530.232422" xlink:href="#DejaVuSans-105"/>
     <use x="558.015625" xlink:href="#DejaVuSans-115"/>
    </g>
   </g>
   <g id="text_56">
    <!-- Royal Dutch Shell -->
    <g style="opacity:0.75;" transform="translate(207.092373 139.765451)scale(0.05 -0.05)">
     <defs>
      <path d="M 44.390625 34.1875 
Q 47.5625 33.109375 50.5625 29.59375 
Q 53.5625 26.078125 56.59375 19.921875 
L 66.609375 0 
L 56 0 
L 46.6875 18.703125 
Q 43.0625 26.03125 39.671875 28.421875 
Q 36.28125 30.8125 30.421875 30.8125 
L 19.671875 30.8125 
L 19.671875 0 
L 9.8125 0 
L 9.8125 72.90625 
L 32.078125 72.90625 
Q 44.578125 72.90625 50.734375 67.671875 
Q 56.890625 62.453125 56.890625 51.90625 
Q 56.890625 45.015625 53.6875 40.46875 
Q 50.484375 35.9375 44.390625 34.1875 
z
M 19.671875 64.796875 
L 19.671875 38.921875 
L 32.078125 38.921875 
Q 39.203125 38.921875 42.84375 42.21875 
Q 46.484375 45.515625 46.484375 51.90625 
Q 46.484375 58.296875 42.84375 61.546875 
Q 39.203125 64.796875 32.078125 64.796875 
z
" id="DejaVuSans-82"/>
     </defs>
     <use xlink:href="#DejaVuSans-82"/>
     <use x="64.982422" xlink:href="#DejaVuSans-111"/>
     <use x="126.164062" xlink:href="#DejaVuSans-121"/>
     <use x="185.34375" xlink:href="#DejaVuSans-97"/>
     <use x="246.623047" xlink:href="#DejaVuSans-108"/>
     <use x="274.40625" xlink:href="#DejaVuSans-32"/>
     <use x="306.193359" xlink:href="#DejaVuSans-68"/>
     <use x="383.195312" xlink:href="#DejaVuSans-117"/>
     <use x="446.574219" xlink:href="#DejaVuSans-116"/>
     <use x="485.783203" xlink:href="#DejaVuSans-99"/>
     <use x="540.763672" xlink:href="#DejaVuSans-104"/>
     <use x="604.142578" xlink:href="#DejaVuSans-32"/>
     <use x="635.929688" xlink:href="#DejaVuSans-83"/>
     <use x="699.40625" xlink:href="#DejaVuSans-104"/>
     <use x="762.785156" xlink:href="#DejaVuSans-101"/>
     <use x="824.308594" xlink:href="#DejaVuSans-108"/>
     <use x="852.091797" xlink:href="#DejaVuSans-108"/>
    </g>
   </g>
   <g id="text_57">
    <!-- SAP -->
    <g style="opacity:0.75;" transform="translate(177.71134 139.559459)scale(0.05 -0.05)">
     <use xlink:href="#DejaVuSans-83"/>
     <use x="65.351562" xlink:href="#DejaVuSans-65"/>
     <use x="133.759766" xlink:href="#DejaVuSans-80"/>
    </g>
   </g>
   <g id="text_58">
    <!-- Schlumberger -->
    <g style="opacity:0.75;" transform="translate(223.724157 107.235034)scale(0.05 -0.05)">
     <use xlink:href="#DejaVuSans-83"/>
     <use x="63.476562" xlink:href="#DejaVuSans-99"/>
     <use x="118.457031" xlink:href="#DejaVuSans-104"/>
     <use x="181.835938" xlink:href="#DejaVuSans-108"/>
     <use x="209.619141" xlink:href="#DejaVuSans-117"/>
     <use x="272.998047" xlink:href="#DejaVuSans-109"/>
     <use x="370.410156" xlink:href="#DejaVuSans-98"/>
     <use x="433.886719" xlink:href="#DejaVuSans-101"/>
     <use x="495.410156" xlink:href="#DejaVuSans-114"/>
     <use x="534.773438" xlink:href="#DejaVuSans-103"/>
     <use x="598.25" xlink:href="#DejaVuSans-101"/>
     <use x="659.773438" xlink:href="#DejaVuSans-114"/>
    </g>
   </g>
   <g id="text_59">
    <!-- Sony -->
    <g style="opacity:0.75;" transform="translate(126.056869 78.595648)scale(0.05 -0.05)">
     <use xlink:href="#DejaVuSans-83"/>
     <use x="63.476562" xlink:href="#DejaVuSans-111"/>
     <use x="124.658203" xlink:href="#DejaVuSans-110"/>
     <use x="188.037109" xlink:href="#DejaVuSans-121"/>
    </g>
   </g>
   <g id="text_60">
    <!-- Sanofi-Aventis -->
    <g style="opacity:0.75;" transform="translate(218.467441 155.680615)scale(0.05 -0.05)">
     <use xlink:href="#DejaVuSans-83"/>
     <use x="63.476562" xlink:href="#DejaVuSans-97"/>
     <use x="124.755859" xlink:href="#DejaVuSans-110"/>
     <use x="188.134766" xlink:href="#DejaVuSans-111"/>
     <use x="249.316406" xlink:href="#DejaVuSans-102"/>
     <use x="284.521484" xlink:href="#DejaVuSans-105"/>
     <use x="312.304688" xlink:href="#DejaVuSans-45"/>
     <use x="346.138672" xlink:href="#DejaVuSans-65"/>
     <use x="408.671875" xlink:href="#DejaVuSans-118"/>
     <use x="467.851562" xlink:href="#DejaVuSans-101"/>
     <use x="529.375" xlink:href="#DejaVuSans-110"/>
     <use x="592.753906" xlink:href="#DejaVuSans-116"/>
     <use x="631.962891" xlink:href="#DejaVuSans-105"/>
     <use x="659.746094" xlink:href="#DejaVuSans-115"/>
    </g>
   </g>
   <g id="text_61">
    <!-- Symantec -->
    <g style="opacity:0.75;" transform="translate(127.566997 142.363729)scale(0.05 -0.05)">
     <use xlink:href="#DejaVuSans-83"/>
     <use x="63.476562" xlink:href="#DejaVuSans-121"/>
     <use x="122.65625" xlink:href="#DejaVuSans-109"/>
     <use x="220.068359" xlink:href="#DejaVuSans-97"/>
     <use x="281.347656" xlink:href="#DejaVuSans-110"/>
     <use x="344.726562" xlink:href="#DejaVuSans-116"/>
     <use x="383.935547" xlink:href="#DejaVuSans-101"/>
     <use x="445.458984" xlink:href="#DejaVuSans-99"/>
    </g>
   </g>
   <g id="text_62">
    <!-- Toyota -->
    <g style="opacity:0.75;" transform="translate(140.303299 92.531986)scale(0.05 -0.05)">
     <use xlink:href="#DejaVuSans-84"/>
     <use x="44.083984" xlink:href="#DejaVuSans-111"/>
     <use x="105.265625" xlink:href="#DejaVuSans-121"/>
     <use x="164.445312" xlink:href="#DejaVuSans-111"/>
     <use x="225.626953" xlink:href="#DejaVuSans-116"/>
     <use x="264.835938" xlink:href="#DejaVuSans-97"/>
    </g>
   </g>
   <g id="text_63">
    <!-- Total -->
    <g style="opacity:0.75;" transform="translate(199.518755 138.235486)scale(0.05 -0.05)">
     <use xlink:href="#DejaVuSans-84"/>
     <use x="44.083984" xlink:href="#DejaVuSans-111"/>
     <use x="105.265625" xlink:href="#DejaVuSans-116"/>
     <use x="144.474609" xlink:href="#DejaVuSans-97"/>
     <use x="205.753906" xlink:href="#DejaVuSans-108"/>
    </g>
   </g>
   <g id="text_64">
    <!-- Taiwan Semiconductor Manufacturing -->
    <g style="opacity:0.75;" transform="translate(268.276363 45.351509)scale(0.05 -0.05)">
     <defs>
      <path d="M 4.203125 54.6875 
L 13.1875 54.6875 
L 24.421875 12.015625 
L 35.59375 54.6875 
L 46.1875 54.6875 
L 57.421875 12.015625 
L 68.609375 54.6875 
L 77.59375 54.6875 
L 63.28125 0 
L 52.6875 0 
L 40.921875 44.828125 
L 29.109375 0 
L 18.5 0 
z
" id="DejaVuSans-119"/>
     </defs>
     <use xlink:href="#DejaVuSans-84"/>
     <use x="44.583984" xlink:href="#DejaVuSans-97"/>
     <use x="105.863281" xlink:href="#DejaVuSans-105"/>
     <use x="133.646484" xlink:href="#DejaVuSans-119"/>
     <use x="215.433594" xlink:href="#DejaVuSans-97"/>
     <use x="276.712891" xlink:href="#DejaVuSans-110"/>
     <use x="340.091797" xlink:href="#DejaVuSans-32"/>
     <use x="371.878906" xlink:href="#DejaVuSans-83"/>
     <use x="435.355469" xlink:href="#DejaVuSans-101"/>
     <use x="496.878906" xlink:href="#DejaVuSans-109"/>
     <use x="594.291016" xlink:href="#DejaVuSans-105"/>
     <use x="622.074219" xlink:href="#DejaVuSans-99"/>
     <use x="677.054688" xlink:href="#DejaVuSans-111"/>
     <use x="738.236328" xlink:href="#DejaVuSans-110"/>
     <use x="801.615234" xlink:href="#DejaVuSans-100"/>
     <use x="865.091797" xlink:href="#DejaVuSans-117"/>
     <use x="928.470703" xlink:href="#DejaVuSans-99"/>
     <use x="983.451172" xlink:href="#DejaVuSans-116"/>
     <use x="1022.660156" xlink:href="#DejaVuSans-111"/>
     <use x="1083.841797" xlink:href="#DejaVuSans-114"/>
     <use x="1124.955078" xlink:href="#DejaVuSans-32"/>
     <use x="1156.742188" xlink:href="#DejaVuSans-77"/>
     <use x="1243.021484" xlink:href="#DejaVuSans-97"/>
     <use x="1304.300781" xlink:href="#DejaVuSans-110"/>
     <use x="1367.679688" xlink:href="#DejaVuSans-117"/>
     <use x="1431.058594" xlink:href="#DejaVuSans-102"/>
     <use x="1466.263672" xlink:href="#DejaVuSans-97"/>
     <use x="1527.542969" xlink:href="#DejaVuSans-99"/>
     <use x="1582.523438" xlink:href="#DejaVuSans-116"/>
     <use x="1621.732422" xlink:href="#DejaVuSans-117"/>
     <use x="1685.111328" xlink:href="#DejaVuSans-114"/>
     <use x="1726.224609" xlink:href="#DejaVuSans-105"/>
     <use x="1754.007812" xlink:href="#DejaVuSans-110"/>
     <use x="1817.386719" xlink:href="#DejaVuSans-103"/>
    </g>
   </g>
   <g id="text_65">
    <!-- Texas instruments -->
    <g style="opacity:0.75;" transform="translate(108.485228 118.202847)scale(0.05 -0.05)">
     <use xlink:href="#DejaVuSans-84"/>
     <use x="44.083984" xlink:href="#DejaVuSans-101"/>
     <use x="103.857422" xlink:href="#DejaVuSans-120"/>
     <use x="163.037109" xlink:href="#DejaVuSans-97"/>
     <use x="224.316406" xlink:href="#DejaVuSans-115"/>
     <use x="276.416016" xlink:href="#DejaVuSans-32"/>
     <use x="308.203125" xlink:href="#DejaVuSans-105"/>
     <use x="335.986328" xlink:href="#DejaVuSans-110"/>
     <use x="399.365234" xlink:href="#DejaVuSans-115"/>
     <use x="451.464844" xlink:href="#DejaVuSans-116"/>
     <use x="490.673828" xlink:href="#DejaVuSans-114"/>
     <use x="531.787109" xlink:href="#DejaVuSans-117"/>
     <use x="595.166016" xlink:href="#DejaVuSans-109"/>
     <use x="692.578125" xlink:href="#DejaVuSans-101"/>
     <use x="754.101562" xlink:href="#DejaVuSans-110"/>
     <use x="817.480469" xlink:href="#DejaVuSans-116"/>
     <use x="856.689453" xlink:href="#DejaVuSans-115"/>
    </g>
   </g>
   <g id="text_66">
    <!-- Unilever -->
    <g style="opacity:0.75;" transform="translate(216.018875 156.795083)scale(0.05 -0.05)">
     <defs>
      <path d="M 8.6875 72.90625 
L 18.609375 72.90625 
L 18.609375 28.609375 
Q 18.609375 16.890625 22.84375 11.734375 
Q 27.09375 6.59375 36.625 6.59375 
Q 46.09375 6.59375 50.34375 11.734375 
Q 54.59375 16.890625 54.59375 28.609375 
L 54.59375 72.90625 
L 64.5 72.90625 
L 64.5 27.390625 
Q 64.5 13.140625 57.4375 5.859375 
Q 50.390625 -1.421875 36.625 -1.421875 
Q 22.796875 -1.421875 15.734375 5.859375 
Q 8.6875 13.140625 8.6875 27.390625 
z
" id="DejaVuSans-85"/>
     </defs>
     <use xlink:href="#DejaVuSans-85"/>
     <use x="73.193359" xlink:href="#DejaVuSans-110"/>
     <use x="136.572266" xlink:href="#DejaVuSans-105"/>
     <use x="164.355469" xlink:href="#DejaVuSans-108"/>
     <use x="192.138672" xlink:href="#DejaVuSans-101"/>
     <use x="253.662109" xlink:href="#DejaVuSans-118"/>
     <use x="312.841797" xlink:href="#DejaVuSans-101"/>
     <use x="374.365234" xlink:href="#DejaVuSans-114"/>
    </g>
   </g>
   <g id="text_67">
    <!-- Valero Energy -->
    <g style="opacity:0.75;" transform="translate(280.931702 110.403352)scale(0.05 -0.05)">
     <defs>
      <path d="M 28.609375 0 
L 0.78125 72.90625 
L 11.078125 72.90625 
L 34.1875 11.53125 
L 57.328125 72.90625 
L 67.578125 72.90625 
L 39.796875 0 
z
" id="DejaVuSans-86"/>
     </defs>
     <use xlink:href="#DejaVuSans-86"/>
     <use x="60.658203" xlink:href="#DejaVuSans-97"/>
     <use x="121.9375" xlink:href="#DejaVuSans-108"/>
     <use x="149.720703" xlink:href="#DejaVuSans-101"/>
     <use x="211.244141" xlink:href="#DejaVuSans-114"/>
     <use x="250.107422" xlink:href="#DejaVuSans-111"/>
     <use x="311.289062" xlink:href="#DejaVuSans-32"/>
     <use x="343.076172" xlink:href="#DejaVuSans-69"/>
     <use x="406.259766" xlink:href="#DejaVuSans-110"/>
     <use x="469.638672" xlink:href="#DejaVuSans-101"/>
     <use x="531.162109" xlink:href="#DejaVuSans-114"/>
     <use x="570.525391" xlink:href="#DejaVuSans-103"/>
     <use x="634.001953" xlink:href="#DejaVuSans-121"/>
    </g>
   </g>
   <g id="text_68">
    <!-- Walgreen -->
    <g style="opacity:0.75;" transform="translate(187.061381 224.352699)scale(0.05 -0.05)">
     <defs>
      <path d="M 3.328125 72.90625 
L 13.28125 72.90625 
L 28.609375 11.28125 
L 43.890625 72.90625 
L 54.984375 72.90625 
L 70.3125 11.28125 
L 85.59375 72.90625 
L 95.609375 72.90625 
L 77.296875 0 
L 64.890625 0 
L 49.515625 63.28125 
L 33.984375 0 
L 21.578125 0 
z
" id="DejaVuSans-87"/>
     </defs>
     <use xlink:href="#DejaVuSans-87"/>
     <use x="92.501953" xlink:href="#DejaVuSans-97"/>
     <use x="153.78125" xlink:href="#DejaVuSans-108"/>
     <use x="181.564453" xlink:href="#DejaVuSans-103"/>
     <use x="245.041016" xlink:href="#DejaVuSans-114"/>
     <use x="283.904297" xlink:href="#DejaVuSans-101"/>
     <use x="345.427734" xlink:href="#DejaVuSans-101"/>
     <use x="406.951172" xlink:href="#DejaVuSans-110"/>
    </g>
   </g>
   <g id="text_69">
    <!-- Wells Fargo -->
    <g style="opacity:0.75;" transform="translate(197.914193 59.693858)scale(0.05 -0.05)">
     <use xlink:href="#DejaVuSans-87"/>
     <use x="93.001953" xlink:href="#DejaVuSans-101"/>
     <use x="154.525391" xlink:href="#DejaVuSans-108"/>
     <use x="182.308594" xlink:href="#DejaVuSans-108"/>
     <use x="210.091797" xlink:href="#DejaVuSans-115"/>
     <use x="262.191406" xlink:href="#DejaVuSans-32"/>
     <use x="293.978516" xlink:href="#DejaVuSans-70"/>
     <use x="342.373047" xlink:href="#DejaVuSans-97"/>
     <use x="403.652344" xlink:href="#DejaVuSans-114"/>
     <use x="443.015625" xlink:href="#DejaVuSans-103"/>
     <use x="506.492188" xlink:href="#DejaVuSans-111"/>
    </g>
   </g>
   <g id="text_70">
    <!-- Wal-Mart -->
    <g style="opacity:0.75;" transform="translate(326.694285 199.077832)scale(0.05 -0.05)">
     <use xlink:href="#DejaVuSans-87"/>
     <use x="92.501953" xlink:href="#DejaVuSans-97"/>
     <use x="153.78125" xlink:href="#DejaVuSans-108"/>
     <use x="181.564453" xlink:href="#DejaVuSans-45"/>
     <use x="217.648438" xlink:href="#DejaVuSans-77"/>
     <use x="303.927734" xlink:href="#DejaVuSans-97"/>
     <use x="365.207031" xlink:href="#DejaVuSans-114"/>
     <use x="406.320312" xlink:href="#DejaVuSans-116"/>
    </g>
   </g>
   <g id="text_71">
    <!-- Exxon -->
    <g style="opacity:0.75;" transform="translate(231.869075 125.377204)scale(0.05 -0.05)">
     <use xlink:href="#DejaVuSans-69"/>
     <use x="63.183594" xlink:href="#DejaVuSans-120"/>
     <use x="122.363281" xlink:href="#DejaVuSans-120"/>
     <use x="178.417969" xlink:href="#DejaVuSans-111"/>
     <use x="239.599609" xlink:href="#DejaVuSans-110"/>
    </g>
   </g>
   <g id="text_72">
    <!-- Xerox -->
    <g style="opacity:0.75;" transform="translate(180.513662 83.976672)scale(0.05 -0.05)">
     <defs>
      <path d="M 6.296875 72.90625 
L 16.890625 72.90625 
L 35.015625 45.796875 
L 53.21875 72.90625 
L 63.8125 72.90625 
L 40.375 37.890625 
L 65.375 0 
L 54.78125 0 
L 34.28125 31 
L 13.625 0 
L 2.984375 0 
L 29 38.921875 
z
" id="DejaVuSans-88"/>
     </defs>
     <use xlink:href="#DejaVuSans-88"/>
     <use x="64.005859" xlink:href="#DejaVuSans-101"/>
     <use x="125.529297" xlink:href="#DejaVuSans-114"/>
     <use x="164.392578" xlink:href="#DejaVuSans-111"/>
     <use x="222.449219" xlink:href="#DejaVuSans-120"/>
    </g>
   </g>
   <g id="text_73">
    <!-- Yahoo -->
    <g style="opacity:0.75;" transform="translate(333.312121 78.908805)scale(0.05 -0.05)">
     <defs>
      <path d="M -0.203125 72.90625 
L 10.40625 72.90625 
L 30.609375 42.921875 
L 50.6875 72.90625 
L 61.28125 72.90625 
L 35.5 34.71875 
L 35.5 0 
L 25.59375 0 
L 25.59375 34.71875 
z
" id="DejaVuSans-89"/>
     </defs>
     <use xlink:href="#DejaVuSans-89"/>
     <use x="47.333984" xlink:href="#DejaVuSans-97"/>
     <use x="108.613281" xlink:href="#DejaVuSans-104"/>
     <use x="171.992188" xlink:href="#DejaVuSans-111"/>
     <use x="233.173828" xlink:href="#DejaVuSans-111"/>
    </g>
   </g>
  </g>
 </g>
 <defs>
  <clipPath id="p1295d0b8bf">
   <rect height="223.721875" width="317.205555" x="30.525" y="10.8"/>
  </clipPath>
 </defs>
</svg>
